solid CATIA STL
  facet normal  0.000000e+00 -1.000000e+00  0.000000e+00
    outer loop
      vertex  4.524000e+04  3.930000e+03  0.000000e+00
      vertex  7.114000e+04  3.930000e+03  0.000000e+00
      vertex  4.524000e+04  3.930000e+03  1.100000e+03
    endloop
  endfacet
  facet normal  0.000000e+00 -1.000000e+00  0.000000e+00
    outer loop
      vertex  4.524000e+04  3.930000e+03  1.100000e+03
      vertex  7.114000e+04  3.930000e+03  0.000000e+00
      vertex  7.114000e+04  3.930000e+03  1.100000e+03
    endloop
  endfacet
  facet normal -1.000000e+00  0.000000e+00  0.000000e+00
    outer loop
      vertex  4.524000e+04  3.930000e+03  0.000000e+00
      vertex  4.524000e+04  3.930000e+03  1.100000e+03
      vertex  4.524000e+04  7.929828e+03  1.100000e+03
    endloop
  endfacet
  facet normal -9.999999e-01  0.000000e+00  0.000000e+00
    outer loop
      vertex  4.524000e+04  3.930000e+03  0.000000e+00
      vertex  4.524000e+04  7.929828e+03  1.100000e+03
      vertex  4.524000e+04  7.927367e+03  1.031299e+03
    endloop
  endfacet
  facet normal -1.000000e+00  0.000000e+00  0.000000e+00
    outer loop
      vertex  4.524000e+04  3.930000e+03  0.000000e+00
      vertex  4.524000e+04  7.927367e+03  1.031299e+03
      vertex  4.524000e+04  7.921910e+03  9.638185e+02
    endloop
  endfacet
  facet normal -9.999999e-01  0.000000e+00  0.000000e+00
    outer loop
      vertex  4.524000e+04  3.930000e+03  0.000000e+00
      vertex  4.524000e+04  7.921910e+03  9.638185e+02
      vertex  4.524000e+04  7.913356e+03  8.977098e+02
    endloop
  endfacet
  facet normal -1.000000e+00  0.000000e+00  0.000000e+00
    outer loop
      vertex  4.524000e+04  3.930000e+03  0.000000e+00
      vertex  4.524000e+04  7.913356e+03  8.977098e+02
      vertex  4.524000e+04  7.901621e+03  8.331299e+02
    endloop
  endfacet
  facet normal -1.000000e+00  0.000000e+00  0.000000e+00
    outer loop
      vertex  4.524000e+04  3.930000e+03  0.000000e+00
      vertex  4.524000e+04  7.901621e+03  8.331299e+02
      vertex  4.524000e+04  7.887530e+03  7.736064e+02
    endloop
  endfacet
  facet normal -1.000000e+00  0.000000e+00  0.000000e+00
    outer loop
      vertex  4.524000e+04  3.930000e+03  0.000000e+00
      vertex  4.524000e+04  7.887530e+03  7.736064e+02
      vertex  4.524000e+04  7.870487e+03  7.157316e+02
    endloop
  endfacet
  facet normal -1.000000e+00  0.000000e+00  0.000000e+00
    outer loop
      vertex  4.524000e+04  3.930000e+03  0.000000e+00
      vertex  4.524000e+04  7.870487e+03  7.157316e+02
      vertex  4.524000e+04  7.850462e+03  6.596408e+02
    endloop
  endfacet
  facet normal -9.999999e-01  0.000000e+00  0.000000e+00
    outer loop
      vertex  4.524000e+04  3.930000e+03  0.000000e+00
      vertex  4.524000e+04  7.850462e+03  6.596408e+02
      vertex  4.524000e+04  7.827449e+03  6.054650e+02
    endloop
  endfacet
  facet normal -9.999999e-01  0.000000e+00  0.000000e+00
    outer loop
      vertex  4.524000e+04  3.930000e+03  0.000000e+00
      vertex  4.524000e+04  7.827449e+03  6.054650e+02
      vertex  4.524000e+04  7.800845e+03  5.521909e+02
    endloop
  endfacet
  facet normal -1.000000e+00  0.000000e+00  0.000000e+00
    outer loop
      vertex  4.524000e+04  3.930000e+03  0.000000e+00
      vertex  4.524000e+04  7.800845e+03  5.521909e+02
      vertex  4.524000e+04  7.771163e+03  5.011718e+02
    endloop
  endfacet
  facet normal -1.000000e+00  0.000000e+00  0.000000e+00
    outer loop
      vertex  4.524000e+04  3.930000e+03  0.000000e+00
      vertex  4.524000e+04  7.771163e+03  5.011718e+02
      vertex  4.524000e+04  7.738461e+03  4.525154e+02
    endloop
  endfacet
  facet normal -1.000000e+00  0.000000e+00  0.000000e+00
    outer loop
      vertex  4.524000e+04  3.930000e+03  0.000000e+00
      vertex  4.524000e+04  7.738461e+03  4.525154e+02
      vertex  4.524000e+04  7.702815e+03  4.063137e+02
    endloop
  endfacet
  facet normal -1.000000e+00  0.000000e+00  0.000000e+00
    outer loop
      vertex  4.524000e+04  3.930000e+03  0.000000e+00
      vertex  4.524000e+04  7.702815e+03  4.063137e+02
      vertex  4.524000e+04  7.663598e+03  3.618724e+02
    endloop
  endfacet
  facet normal -1.000000e+00  0.000000e+00  0.000000e+00
    outer loop
      vertex  4.524000e+04  3.930000e+03  0.000000e+00
      vertex  4.524000e+04  7.663598e+03  3.618724e+02
      vertex  4.524000e+04  7.621549e+03  3.201135e+02
    endloop
  endfacet
  facet normal -1.000000e+00  0.000000e+00  0.000000e+00
    outer loop
      vertex  4.524000e+04  3.930000e+03  0.000000e+00
      vertex  4.524000e+04  7.621549e+03  3.201135e+02
      vertex  4.524000e+04  7.576806e+03  2.810746e+02
    endloop
  endfacet
  facet normal -9.999999e-01  0.000000e+00  0.000000e+00
    outer loop
      vertex  4.524000e+04  3.930000e+03  0.000000e+00
      vertex  4.524000e+04  7.576806e+03  2.810746e+02
      vertex  4.524000e+04  7.529512e+03  2.447737e+02
    endloop
  endfacet
  facet normal -1.000000e+00  0.000000e+00  0.000000e+00
    outer loop
      vertex  4.524000e+04  3.930000e+03  0.000000e+00
      vertex  4.524000e+04  7.529512e+03  2.447737e+02
      vertex  4.524000e+04  7.480413e+03  2.115850e+02
    endloop
  endfacet
  facet normal -1.000000e+00  0.000000e+00  0.000000e+00
    outer loop
      vertex  4.524000e+04  3.930000e+03  0.000000e+00
      vertex  4.524000e+04  7.480413e+03  2.115850e+02
      vertex  4.524000e+04  7.429125e+03  1.810524e+02
    endloop
  endfacet
  facet normal -1.000000e+00  0.000000e+00  0.000000e+00
    outer loop
      vertex  4.524000e+04  3.930000e+03  0.000000e+00
      vertex  4.524000e+04  7.429125e+03  1.810524e+02
      vertex  4.524000e+04  7.375803e+03  1.531439e+02
    endloop
  endfacet
  facet normal -1.000000e+00  0.000000e+00  0.000000e+00
    outer loop
      vertex  4.524000e+04  3.930000e+03  0.000000e+00
      vertex  4.524000e+04  7.375803e+03  1.531439e+02
      vertex  4.524000e+04  7.320597e+03  1.278148e+02
    endloop
  endfacet
  facet normal -1.000000e+00  0.000000e+00  0.000000e+00
    outer loop
      vertex  4.524000e+04  3.930000e+03  0.000000e+00
      vertex  4.524000e+04  7.320597e+03  1.278148e+02
      vertex  4.524000e+04  7.258891e+03  1.032416e+02
    endloop
  endfacet
  facet normal -1.000000e+00  0.000000e+00  0.000000e+00
    outer loop
      vertex  4.524000e+04  3.930000e+03  0.000000e+00
      vertex  4.524000e+04  7.258891e+03  1.032416e+02
      vertex  4.524000e+04  7.195331e+03  8.154516e+01
    endloop
  endfacet
  facet normal -1.000000e+00  0.000000e+00  0.000000e+00
    outer loop
      vertex  4.524000e+04  3.930000e+03  0.000000e+00
      vertex  4.524000e+04  7.195331e+03  8.154516e+01
      vertex  4.524000e+04  7.130089e+03  6.263725e+01
    endloop
  endfacet
  facet normal -1.000000e+00  0.000000e+00  0.000000e+00
    outer loop
      vertex  4.524000e+04  3.930000e+03  0.000000e+00
      vertex  4.524000e+04  7.130089e+03  6.263725e+01
      vertex  4.524000e+04  7.063329e+03  4.642412e+01
    endloop
  endfacet
  facet normal -9.999999e-01  0.000000e+00  0.000000e+00
    outer loop
      vertex  4.524000e+04  3.930000e+03  0.000000e+00
      vertex  4.524000e+04  7.063329e+03  4.642412e+01
      vertex  4.524000e+04  6.982630e+03  3.059617e+01
    endloop
  endfacet
  facet normal -1.000000e+00  0.000000e+00  0.000000e+00
    outer loop
      vertex  4.524000e+04  3.930000e+03  0.000000e+00
      vertex  4.524000e+04  6.982630e+03  3.059617e+01
      vertex  4.524000e+04  6.900242e+03  1.823704e+01
    endloop
  endfacet
  facet normal -9.999999e-01  0.000000e+00  0.000000e+00
    outer loop
      vertex  4.524000e+04  3.930000e+03  0.000000e+00
      vertex  4.524000e+04  6.900242e+03  1.823704e+01
      vertex  4.524000e+04  6.816375e+03  9.185221e+00
    endloop
  endfacet
  facet normal -1.000000e+00  0.000000e+00  0.000000e+00
    outer loop
      vertex  4.524000e+04  3.930000e+03  0.000000e+00
      vertex  4.524000e+04  6.816375e+03  9.185221e+00
      vertex  4.524000e+04  6.731218e+03  3.282567e+00
    endloop
  endfacet
  facet normal -1.000000e+00  0.000000e+00  0.000000e+00
    outer loop
      vertex  4.524000e+04  3.930000e+03  0.000000e+00
      vertex  4.524000e+04  6.731218e+03  3.282567e+00
      vertex  4.524000e+04  6.599830e+03  0.000000e+00
    endloop
  endfacet
  facet normal  0.000000e+00  0.000000e+00 -1.000000e+00
    outer loop
      vertex  4.524000e+04  3.930000e+03  0.000000e+00
      vertex  4.524000e+04  6.599830e+03  0.000000e+00
      vertex  7.114000e+04  3.930000e+03  0.000000e+00
    endloop
  endfacet
  facet normal  0.000000e+00  0.000000e+00 -1.000000e+00
    outer loop
      vertex  7.114000e+04  3.930000e+03  0.000000e+00
      vertex  4.524000e+04  6.599830e+03  0.000000e+00
      vertex  7.114000e+04  6.599100e+03  0.000000e+00
    endloop
  endfacet
  facet normal  1.000000e+00  0.000000e+00  -0.000000e+00
    outer loop
      vertex  7.114000e+04  3.930000e+03  0.000000e+00
      vertex  7.114000e+04  6.599100e+03  0.000000e+00
      vertex  7.114000e+04  6.730677e+03  3.291877e+00
    endloop
  endfacet
  facet normal  1.000000e+00  0.000000e+00  -0.000000e+00
    outer loop
      vertex  7.114000e+04  3.930000e+03  0.000000e+00
      vertex  7.114000e+04  6.730677e+03  3.291877e+00
      vertex  7.114000e+04  6.815863e+03  9.202788e+00
    endloop
  endfacet
  facet normal  1.000000e+00  0.000000e+00  -0.000000e+00
    outer loop
      vertex  7.114000e+04  3.930000e+03  0.000000e+00
      vertex  7.114000e+04  6.815863e+03  9.202788e+00
      vertex  7.114000e+04  6.899760e+03  1.826435e+01
    endloop
  endfacet
  facet normal  1.000000e+00  0.000000e+00  -0.000000e+00
    outer loop
      vertex  7.114000e+04  3.930000e+03  0.000000e+00
      vertex  7.114000e+04  6.899760e+03  1.826435e+01
      vertex  7.114000e+04  6.982180e+03  3.063456e+01
    endloop
  endfacet
  facet normal  9.999999e-01  0.000000e+00  -0.000000e+00
    outer loop
      vertex  7.114000e+04  3.930000e+03  0.000000e+00
      vertex  7.114000e+04  6.982180e+03  3.063456e+01
      vertex  7.114000e+04  7.062913e+03  4.647478e+01
    endloop
  endfacet
  facet normal  1.000000e+00  0.000000e+00  -0.000000e+00
    outer loop
      vertex  7.114000e+04  3.930000e+03  0.000000e+00
      vertex  7.114000e+04  7.062913e+03  4.647478e+01
      vertex  7.114000e+04  7.129702e+03  6.269912e+01
    endloop
  endfacet
  facet normal  1.000000e+00  0.000000e+00  -0.000000e+00
    outer loop
      vertex  7.114000e+04  3.930000e+03  0.000000e+00
      vertex  7.114000e+04  7.129702e+03  6.269912e+01
      vertex  7.114000e+04  7.194973e+03  8.161893e+01
    endloop
  endfacet
  facet normal  1.000000e+00  0.000000e+00  -0.000000e+00
    outer loop
      vertex  7.114000e+04  3.930000e+03  0.000000e+00
      vertex  7.114000e+04  7.194973e+03  8.161893e+01
      vertex  7.114000e+04  7.258564e+03  1.033280e+02
    endloop
  endfacet
  facet normal  1.000000e+00  0.000000e+00  -0.000000e+00
    outer loop
      vertex  7.114000e+04  3.930000e+03  0.000000e+00
      vertex  7.114000e+04  7.258564e+03  1.033280e+02
      vertex  7.114000e+04  7.320302e+03  1.279144e+02
    endloop
  endfacet
  facet normal  1.000000e+00  0.000000e+00  -0.000000e+00
    outer loop
      vertex  7.114000e+04  3.930000e+03  0.000000e+00
      vertex  7.114000e+04  7.320302e+03  1.279144e+02
      vertex  7.114000e+04  7.375534e+03  1.532544e+02
    endloop
  endfacet
  facet normal  9.999999e-01  0.000000e+00  -0.000000e+00
    outer loop
      vertex  7.114000e+04  3.930000e+03  0.000000e+00
      vertex  7.114000e+04  7.375534e+03  1.532544e+02
      vertex  7.114000e+04  7.428883e+03  1.811741e+02
    endloop
  endfacet
  facet normal  1.000000e+00  0.000000e+00  -0.000000e+00
    outer loop
      vertex  7.114000e+04  3.930000e+03  0.000000e+00
      vertex  7.114000e+04  7.428883e+03  1.811741e+02
      vertex  7.114000e+04  7.480198e+03  2.117182e+02
    endloop
  endfacet
  facet normal  9.999999e-01  0.000000e+00  -0.000000e+00
    outer loop
      vertex  7.114000e+04  3.930000e+03  0.000000e+00
      vertex  7.114000e+04  7.480198e+03  2.117182e+02
      vertex  7.114000e+04  7.529324e+03  2.449187e+02
    endloop
  endfacet
  facet normal  1.000000e+00  0.000000e+00  -0.000000e+00
    outer loop
      vertex  7.114000e+04  3.930000e+03  0.000000e+00
      vertex  7.114000e+04  7.529324e+03  2.449187e+02
      vertex  7.114000e+04  7.576639e+03  2.812271e+02
    endloop
  endfacet
  facet normal  1.000000e+00  0.000000e+00  -0.000000e+00
    outer loop
      vertex  7.114000e+04  3.930000e+03  0.000000e+00
      vertex  7.114000e+04  7.576639e+03  2.812271e+02
      vertex  7.114000e+04  7.621405e+03  3.202731e+02
    endloop
  endfacet
  facet normal  1.000000e+00  0.000000e+00  -0.000000e+00
    outer loop
      vertex  7.114000e+04  3.930000e+03  0.000000e+00
      vertex  7.114000e+04  7.621405e+03  3.202731e+02
      vertex  7.114000e+04  7.663475e+03  3.620393e+02
    endloop
  endfacet
  facet normal  1.000000e+00  0.000000e+00  -0.000000e+00
    outer loop
      vertex  7.114000e+04  3.930000e+03  0.000000e+00
      vertex  7.114000e+04  7.663475e+03  3.620393e+02
      vertex  7.114000e+04  7.702714e+03  4.064879e+02
    endloop
  endfacet
  facet normal  1.000000e+00  0.000000e+00  -0.000000e+00
    outer loop
      vertex  7.114000e+04  3.930000e+03  0.000000e+00
      vertex  7.114000e+04  7.702714e+03  4.064879e+02
      vertex  7.114000e+04  7.738375e+03  4.526887e+02
    endloop
  endfacet
  facet normal  1.000000e+00  0.000000e+00  -0.000000e+00
    outer loop
      vertex  7.114000e+04  3.930000e+03  0.000000e+00
      vertex  7.114000e+04  7.738375e+03  4.526887e+02
      vertex  7.114000e+04  7.771092e+03  5.013437e+02
    endloop
  endfacet
  facet normal  1.000000e+00  0.000000e+00  -0.000000e+00
    outer loop
      vertex  7.114000e+04  3.930000e+03  0.000000e+00
      vertex  7.114000e+04  7.771092e+03  5.013437e+02
      vertex  7.114000e+04  7.800788e+03  5.523610e+02
    endloop
  endfacet
  facet normal  1.000000e+00  0.000000e+00  -0.000000e+00
    outer loop
      vertex  7.114000e+04  3.930000e+03  0.000000e+00
      vertex  7.114000e+04  7.800788e+03  5.523610e+02
      vertex  7.114000e+04  7.827406e+03  6.056332e+02
    endloop
  endfacet
  facet normal  1.000000e+00  0.000000e+00  -0.000000e+00
    outer loop
      vertex  7.114000e+04  3.930000e+03  0.000000e+00
      vertex  7.114000e+04  7.827406e+03  6.056332e+02
      vertex  7.114000e+04  7.850428e+03  6.597966e+02
    endloop
  endfacet
  facet normal  1.000000e+00  0.000000e+00  -0.000000e+00
    outer loop
      vertex  7.114000e+04  3.930000e+03  0.000000e+00
      vertex  7.114000e+04  7.850428e+03  6.597966e+02
      vertex  7.114000e+04  7.870460e+03  7.158743e+02
    endloop
  endfacet
  facet normal  1.000000e+00  0.000000e+00  -0.000000e+00
    outer loop
      vertex  7.114000e+04  3.930000e+03  0.000000e+00
      vertex  7.114000e+04  7.870460e+03  7.158743e+02
      vertex  7.114000e+04  7.887512e+03  7.737354e+02
    endloop
  endfacet
  facet normal  1.000000e+00  0.000000e+00  -0.000000e+00
    outer loop
      vertex  7.114000e+04  3.930000e+03  0.000000e+00
      vertex  7.114000e+04  7.887512e+03  7.737354e+02
      vertex  7.114000e+04  7.901608e+03  8.332446e+02
    endloop
  endfacet
  facet normal  1.000000e+00  0.000000e+00  -0.000000e+00
    outer loop
      vertex  7.114000e+04  3.930000e+03  0.000000e+00
      vertex  7.114000e+04  7.901608e+03  8.332446e+02
      vertex  7.114000e+04  7.913348e+03  8.977973e+02
    endloop
  endfacet
  facet normal  9.999999e-01  0.000000e+00  -0.000000e+00
    outer loop
      vertex  7.114000e+04  3.930000e+03  0.000000e+00
      vertex  7.114000e+04  7.913348e+03  8.977973e+02
      vertex  7.114000e+04  7.921905e+03  9.638777e+02
    endloop
  endfacet
  facet normal  1.000000e+00  0.000000e+00  -0.000000e+00
    outer loop
      vertex  7.114000e+04  3.930000e+03  0.000000e+00
      vertex  7.114000e+04  7.921905e+03  9.638777e+02
      vertex  7.114000e+04  7.927366e+03  1.031329e+03
    endloop
  endfacet
  facet normal  1.000000e+00  0.000000e+00  -0.000000e+00
    outer loop
      vertex  7.114000e+04  3.930000e+03  0.000000e+00
      vertex  7.114000e+04  7.927366e+03  1.031329e+03
      vertex  7.114000e+04  7.929827e+03  1.100000e+03
    endloop
  endfacet
  facet normal  1.000000e+00  0.000000e+00  0.000000e+00
    outer loop
      vertex  7.114000e+04  3.930000e+03  0.000000e+00
      vertex  7.114000e+04  7.929827e+03  1.100000e+03
      vertex  7.114000e+04  3.930000e+03  1.100000e+03
    endloop
  endfacet
  facet normal  0.000000e+00  0.000000e+00  1.000000e+00
    outer loop
      vertex  4.524000e+04  3.930000e+03  1.100000e+03
      vertex  7.114000e+04  3.930000e+03  1.100000e+03
      vertex  4.524000e+04  7.929828e+03  1.100000e+03
    endloop
  endfacet
  facet normal  0.000000e+00  0.000000e+00  1.000000e+00
    outer loop
      vertex  4.524000e+04  7.929828e+03  1.100000e+03
      vertex  7.114000e+04  3.930000e+03  1.100000e+03
      vertex  7.114000e+04  7.929827e+03  1.100000e+03
    endloop
  endfacet
  facet normal  1.844882e-06  9.730716e-01 -2.305034e-01
    outer loop
      vertex  7.114000e+04  7.887512e+03  7.737354e+02
      vertex  4.524000e+04  7.887530e+03  7.736064e+02
      vertex  7.114000e+04  7.901608e+03  8.332446e+02
    endloop
  endfacet
  facet normal  1.479184e-06  9.731072e-01 -2.303530e-01
    outer loop
      vertex  7.114000e+04  7.901608e+03  8.332446e+02
      vertex  4.524000e+04  7.887530e+03  7.736064e+02
      vertex  4.524000e+04  7.901621e+03  8.331299e+02
    endloop
  endfacet
  facet normal  1.256422e-06  9.838621e-01 -1.789282e-01
    outer loop
      vertex  7.114000e+04  7.901608e+03  8.332446e+02
      vertex  4.524000e+04  7.901621e+03  8.331299e+02
      vertex  7.114000e+04  7.913348e+03  8.977973e+02
    endloop
  endfacet
  facet normal  9.009707e-07  9.838873e-01 -1.787904e-01
    outer loop
      vertex  7.114000e+04  7.913348e+03  8.977973e+02
      vertex  4.524000e+04  7.901621e+03  8.331299e+02
      vertex  4.524000e+04  7.913356e+03  8.977098e+02
    endloop
  endfacet
  facet normal  7.331269e-07  9.917195e-01 -1.284233e-01
    outer loop
      vertex  7.114000e+04  7.913348e+03  8.977973e+02
      vertex  4.524000e+04  7.913356e+03  8.977098e+02
      vertex  7.114000e+04  7.921905e+03  9.638777e+02
    endloop
  endfacet
  facet normal  4.618935e-07  9.917330e-01 -1.283189e-01
    outer loop
      vertex  7.114000e+04  7.921905e+03  9.638777e+02
      vertex  4.524000e+04  7.913356e+03  8.977098e+02
      vertex  4.524000e+04  7.921910e+03  9.638185e+02
    endloop
  endfacet
  facet normal  3.537574e-07  9.967392e-01 -8.069020e-02
    outer loop
      vertex  7.114000e+04  7.921905e+03  9.638777e+02
      vertex  4.524000e+04  7.921910e+03  9.638185e+02
      vertex  7.114000e+04  7.927366e+03  1.031329e+03
    endloop
  endfacet
  facet normal  1.498383e-07  9.967455e-01 -8.061247e-02
    outer loop
      vertex  7.114000e+04  7.927366e+03  1.031329e+03
      vertex  4.524000e+04  7.921910e+03  9.638185e+02
      vertex  4.524000e+04  7.927367e+03  1.031299e+03
    endloop
  endfacet
  facet normal  9.805301e-08  9.993581e-01 -3.582066e-02
    outer loop
      vertex  7.114000e+04  7.927366e+03  1.031329e+03
      vertex  4.524000e+04  7.927367e+03  1.031299e+03
      vertex  7.114000e+04  7.929827e+03  1.100000e+03
    endloop
  endfacet
  facet normal  1.884048e-08  9.993593e-01 -3.579084e-02
    outer loop
      vertex  7.114000e+04  7.929827e+03  1.100000e+03
      vertex  4.524000e+04  7.927367e+03  1.031299e+03
      vertex  4.524000e+04  7.929828e+03  1.100000e+03
    endloop
  endfacet
  facet normal  4.067407e-06  9.203154e-01 -3.911771e-01
    outer loop
      vertex  7.114000e+04  7.827406e+03  6.056332e+02
      vertex  4.524000e+04  7.827449e+03  6.054650e+02
      vertex  7.114000e+04  7.850428e+03  6.597966e+02
    endloop
  endfacet
  facet normal  3.566865e-06  9.204015e-01 -3.909748e-01
    outer loop
      vertex  7.114000e+04  7.850428e+03  6.597966e+02
      vertex  4.524000e+04  7.827449e+03  6.054650e+02
      vertex  4.524000e+04  7.850462e+03  6.596408e+02
    endloop
  endfacet
  facet normal  3.266675e-06  9.417180e-01 -3.364031e-01
    outer loop
      vertex  7.114000e+04  7.850428e+03  6.597966e+02
      vertex  4.524000e+04  7.850462e+03  6.596408e+02
      vertex  7.114000e+04  7.870460e+03  7.158743e+02
    endloop
  endfacet
  facet normal  2.811214e-06  9.417846e-01 -3.362169e-01
    outer loop
      vertex  7.114000e+04  7.870460e+03  7.158743e+02
      vertex  4.524000e+04  7.850462e+03  6.596408e+02
      vertex  4.524000e+04  7.870487e+03  7.157316e+02
    endloop
  endfacet
  facet normal  2.533958e-06  9.592159e-01 -2.826744e-01
    outer loop
      vertex  7.114000e+04  7.870460e+03  7.158743e+02
      vertex  4.524000e+04  7.870487e+03  7.157316e+02
      vertex  7.114000e+04  7.887512e+03  7.737354e+02
    endloop
  endfacet
  facet normal  2.093875e-06  9.592692e-01 -2.824936e-01
    outer loop
      vertex  7.114000e+04  7.887512e+03  7.737354e+02
      vertex  4.524000e+04  7.870487e+03  7.157316e+02
      vertex  4.524000e+04  7.887530e+03  7.736064e+02
    endloop
  endfacet
  facet normal  7.825524e-06  7.496711e-01 -6.618105e-01
    outer loop
      vertex  7.114000e+04  7.663475e+03  3.620393e+02
      vertex  4.524000e+04  7.663598e+03  3.618724e+02
      vertex  7.114000e+04  7.702714e+03  4.064879e+02
    endloop
  endfacet
  facet normal  7.376980e-06  7.498007e-01 -6.616637e-01
    outer loop
      vertex  7.114000e+04  7.702714e+03  4.064879e+02
      vertex  4.524000e+04  7.663598e+03  3.618724e+02
      vertex  4.524000e+04  7.702815e+03  4.063137e+02
    endloop
  endfacet
  facet normal  7.199484e-06  7.916161e-01 -6.110188e-01
    outer loop
      vertex  7.114000e+04  7.702714e+03  4.064879e+02
      vertex  4.524000e+04  7.702815e+03  4.063137e+02
      vertex  7.114000e+04  7.738375e+03  4.526887e+02
    endloop
  endfacet
  facet normal  6.729488e-06  7.917434e-01 -6.108539e-01
    outer loop
      vertex  7.114000e+04  7.738375e+03  4.526887e+02
      vertex  4.524000e+04  7.702815e+03  4.063137e+02
      vertex  4.524000e+04  7.738461e+03  4.525154e+02
    endloop
  endfacet
  facet normal  6.502986e-06  8.298347e-01 -5.580093e-01
    outer loop
      vertex  7.114000e+04  7.738375e+03  4.526887e+02
      vertex  4.524000e+04  7.738461e+03  4.525154e+02
      vertex  7.114000e+04  7.771092e+03  5.013437e+02
    endloop
  endfacet
  facet normal  5.986857e-06  8.299617e-01 -5.578204e-01
    outer loop
      vertex  7.114000e+04  7.771092e+03  5.013437e+02
      vertex  4.524000e+04  7.738461e+03  4.525154e+02
      vertex  4.524000e+04  7.771163e+03  5.011718e+02
    endloop
  endfacet
  facet normal  5.717767e-06  8.642528e-01 -5.030577e-01
    outer loop
      vertex  7.114000e+04  7.771092e+03  5.013437e+02
      vertex  4.524000e+04  7.771163e+03  5.011718e+02
      vertex  7.114000e+04  7.800788e+03  5.523610e+02
    endloop
  endfacet
  facet normal  5.209271e-06  8.643648e-01 -5.028653e-01
    outer loop
      vertex  7.114000e+04  7.800788e+03  5.523610e+02
      vertex  4.524000e+04  7.771163e+03  5.011718e+02
      vertex  4.524000e+04  7.800845e+03  5.521909e+02
    endloop
  endfacet
  facet normal  4.908793e-06  8.945445e-01 -4.469791e-01
    outer loop
      vertex  7.114000e+04  7.800788e+03  5.523610e+02
      vertex  4.524000e+04  7.800845e+03  5.521909e+02
      vertex  7.114000e+04  7.827406e+03  6.056332e+02
    endloop
  endfacet
  facet normal  4.385920e-06  8.946458e-01 -4.467761e-01
    outer loop
      vertex  7.114000e+04  7.827406e+03  6.056332e+02
      vertex  4.524000e+04  7.800845e+03  5.521909e+02
      vertex  4.524000e+04  7.827449e+03  6.054650e+02
    endloop
  endfacet
  facet normal  8.859810e-06  6.087816e-01 -7.933378e-01
    outer loop
      vertex  7.114000e+04  7.529324e+03  2.449187e+02
      vertex  4.524000e+04  7.529512e+03  2.447737e+02
      vertex  7.114000e+04  7.576639e+03  2.812271e+02
    endloop
  endfacet
  facet normal  8.582152e-06  6.088773e-01 -7.932643e-01
    outer loop
      vertex  7.114000e+04  7.576639e+03  2.812271e+02
      vertex  4.524000e+04  7.529512e+03  2.447737e+02
      vertex  4.524000e+04  7.576806e+03  2.810746e+02
    endloop
  endfacet
  facet normal  8.660249e-06  6.573230e-01 -7.536090e-01
    outer loop
      vertex  7.114000e+04  7.576639e+03  2.812271e+02
      vertex  4.524000e+04  7.576806e+03  2.810746e+02
      vertex  7.114000e+04  7.621405e+03  3.202731e+02
    endloop
  endfacet
  facet normal  8.313958e-06  6.574369e-01 -7.535096e-01
    outer loop
      vertex  7.114000e+04  7.621405e+03  3.202731e+02
      vertex  4.524000e+04  7.576806e+03  2.810746e+02
      vertex  4.524000e+04  7.621549e+03  3.201135e+02
    endloop
  endfacet
  facet normal  8.306512e-06  7.045410e-01 -7.096632e-01
    outer loop
      vertex  7.114000e+04  7.621405e+03  3.202731e+02
      vertex  4.524000e+04  7.621549e+03  3.201135e+02
      vertex  7.114000e+04  7.663475e+03  3.620393e+02
    endloop
  endfacet
  facet normal  7.919229e-06  7.046611e-01 -7.095440e-01
    outer loop
      vertex  7.114000e+04  7.663475e+03  3.620393e+02
      vertex  4.524000e+04  7.621549e+03  3.201135e+02
      vertex  4.524000e+04  7.663598e+03  3.618724e+02
    endloop
  endfacet
  facet normal  8.702606e-06  5.600192e-01 -8.284796e-01
    outer loop
      vertex  4.524000e+04  7.529512e+03  2.447737e+02
      vertex  7.114000e+04  7.529324e+03  2.449187e+02
      vertex  4.524000e+04  7.480413e+03  2.115850e+02
    endloop
  endfacet
  facet normal  8.915685e-06  5.599419e-01 -8.285319e-01
    outer loop
      vertex  4.524000e+04  7.480413e+03  2.115850e+02
      vertex  7.114000e+04  7.529324e+03  2.449187e+02
      vertex  7.114000e+04  7.480198e+03  2.117182e+02
    endloop
  endfacet
  facet normal  8.671255e-06  5.115364e-01 -8.592616e-01
    outer loop
      vertex  4.524000e+04  7.480413e+03  2.115850e+02
      vertex  7.114000e+04  7.480198e+03  2.117182e+02
      vertex  4.524000e+04  7.429125e+03  1.810524e+02
    endloop
  endfacet
  facet normal  8.820614e-06  5.114806e-01 -8.592948e-01
    outer loop
      vertex  4.524000e+04  7.429125e+03  1.810524e+02
      vertex  7.114000e+04  7.480198e+03  2.117182e+02
      vertex  7.114000e+04  7.428883e+03  1.811741e+02
    endloop
  endfacet
  facet normal  8.499379e-06  4.637150e-01 -8.859844e-01
    outer loop
      vertex  4.524000e+04  7.429125e+03  1.810524e+02
      vertex  7.114000e+04  7.428883e+03  1.811741e+02
      vertex  4.524000e+04  7.375803e+03  1.531439e+02
    endloop
  endfacet
  facet normal  8.598331e-06  4.636771e-01 -8.860043e-01
    outer loop
      vertex  4.524000e+04  7.375803e+03  1.531439e+02
      vertex  7.114000e+04  7.428883e+03  1.811741e+02
      vertex  7.114000e+04  7.375534e+03  1.532544e+02
    endloop
  endfacet
  facet normal  8.211325e-06  4.170131e-01 -9.089005e-01
    outer loop
      vertex  4.524000e+04  7.375803e+03  1.531439e+02
      vertex  7.114000e+04  7.375534e+03  1.532544e+02
      vertex  4.524000e+04  7.320597e+03  1.278148e+02
    endloop
  endfacet
  facet normal  8.243943e-06  4.170004e-01 -9.089063e-01
    outer loop
      vertex  4.524000e+04  7.320597e+03  1.278148e+02
      vertex  7.114000e+04  7.375534e+03  1.532544e+02
      vertex  7.114000e+04  7.320302e+03  1.279144e+02
    endloop
  endfacet
  facet normal  6.461501e-06  2.784035e-01 -9.604642e-01
    outer loop
      vertex  7.114000e+04  7.129702e+03  6.269912e+01
      vertex  4.524000e+04  7.130089e+03  6.263725e+01
      vertex  7.114000e+04  7.194973e+03  8.161893e+01
    endloop
  endfacet
  facet normal  6.577321e-06  2.783609e-01 -9.604766e-01
    outer loop
      vertex  7.114000e+04  7.194973e+03  8.161893e+01
      vertex  4.524000e+04  7.130089e+03  6.263725e+01
      vertex  4.524000e+04  7.195331e+03  8.154516e+01
    endloop
  endfacet
  facet normal  7.154252e-06  3.230785e-01 -9.463722e-01
    outer loop
      vertex  7.114000e+04  7.194973e+03  8.161893e+01
      vertex  4.524000e+04  7.195331e+03  8.154516e+01
      vertex  7.114000e+04  7.258564e+03  1.033280e+02
    endloop
  endfacet
  facet normal  7.230185e-06  3.230507e-01 -9.463817e-01
    outer loop
      vertex  7.114000e+04  7.258564e+03  1.033280e+02
      vertex  4.524000e+04  7.195331e+03  8.154516e+01
      vertex  4.524000e+04  7.258891e+03  1.032416e+02
    endloop
  endfacet
  facet normal  7.764245e-06  3.699798e-01 -9.290398e-01
    outer loop
      vertex  7.114000e+04  7.258564e+03  1.033280e+02
      vertex  4.524000e+04  7.258891e+03  1.032416e+02
      vertex  7.114000e+04  7.320302e+03  1.279144e+02
    endloop
  endfacet
  facet normal  7.785878e-06  3.699720e-01 -9.290429e-01
    outer loop
      vertex  7.114000e+04  7.320302e+03  1.279144e+02
      vertex  4.524000e+04  7.258891e+03  1.032416e+02
      vertex  4.524000e+04  7.320597e+03  1.278148e+02
    endloop
  endfacet
  facet normal  3.804791e-06  1.484260e-01 -9.889234e-01
    outer loop
      vertex  7.114000e+04  6.899760e+03  1.826435e+01
      vertex  4.524000e+04  6.900242e+03  1.823704e+01
      vertex  7.114000e+04  6.982180e+03  3.063456e+01
    endloop
  endfacet
  facet normal  4.044615e-06  1.483519e-01 -9.889347e-01
    outer loop
      vertex  7.114000e+04  6.982180e+03  3.063456e+01
      vertex  4.524000e+04  6.900242e+03  1.823704e+01
      vertex  4.524000e+04  6.982630e+03  3.059617e+01
    endloop
  endfacet
  facet normal  4.801263e-06  1.925342e-01 -9.812903e-01
    outer loop
      vertex  7.114000e+04  6.982180e+03  3.063456e+01
      vertex  4.524000e+04  6.982630e+03  3.059617e+01
      vertex  7.114000e+04  7.062913e+03  4.647478e+01
    endloop
  endfacet
  facet normal  5.014505e-06  1.924680e-01 -9.813032e-01
    outer loop
      vertex  7.114000e+04  7.062913e+03  4.647478e+01
      vertex  4.524000e+04  6.982630e+03  3.059617e+01
      vertex  4.524000e+04  7.063329e+03  4.642412e+01
    endloop
  endfacet
  facet normal  5.696719e-06  2.360542e-01 -9.717399e-01
    outer loop
      vertex  7.114000e+04  7.062913e+03  4.647478e+01
      vertex  4.524000e+04  7.063329e+03  4.642412e+01
      vertex  7.114000e+04  7.129702e+03  6.269912e+01
    endloop
  endfacet
  facet normal  5.853678e-06  2.359964e-01 -9.717539e-01
    outer loop
      vertex  7.114000e+04  7.129702e+03  6.269912e+01
      vertex  4.524000e+04  7.063329e+03  4.642412e+01
      vertex  4.524000e+04  7.130089e+03  6.263725e+01
    endloop
  endfacet
  facet normal  7.049209e-07  2.501088e-02 -9.996873e-01
    outer loop
      vertex  7.114000e+04  6.599100e+03  0.000000e+00
      vertex  4.524000e+04  6.599830e+03  0.000000e+00
      vertex  7.114000e+04  6.730677e+03  3.291877e+00
    endloop
  endfacet
  facet normal  8.810720e-07  2.497603e-02 -9.996880e-01
    outer loop
      vertex  7.114000e+04  6.730677e+03  3.291877e+00
      vertex  4.524000e+04  6.599830e+03  0.000000e+00
      vertex  4.524000e+04  6.731218e+03  3.282567e+00
    endloop
  endfacet
  facet normal  1.804548e-06  6.922143e-02 -9.976013e-01
    outer loop
      vertex  7.114000e+04  6.730677e+03  3.291877e+00
      vertex  4.524000e+04  6.731218e+03  3.282567e+00
      vertex  7.114000e+04  6.815863e+03  9.202788e+00
    endloop
  endfacet
  facet normal  2.044166e-06  6.914846e-02 -9.976064e-01
    outer loop
      vertex  7.114000e+04  6.815863e+03  9.202788e+00
      vertex  4.524000e+04  6.731218e+03  3.282567e+00
      vertex  4.524000e+04  6.816375e+03  9.185221e+00
    endloop
  endfacet
  facet normal  2.798021e-06  1.073837e-01 -9.942177e-01
    outer loop
      vertex  7.114000e+04  6.815863e+03  9.202788e+00
      vertex  4.524000e+04  6.816375e+03  9.185221e+00
      vertex  7.114000e+04  6.899760e+03  1.826435e+01
    endloop
  endfacet
  facet normal  3.045276e-06  1.073078e-01 -9.942258e-01
    outer loop
      vertex  7.114000e+04  6.899760e+03  1.826435e+01
      vertex  4.524000e+04  6.816375e+03  9.185221e+00
      vertex  4.524000e+04  6.900242e+03  1.823704e+01
    endloop
  endfacet
endsolid CATIA STL
