solid CATIA STL
  facet normal  0.000000e+00 -1.000000e+00  0.000000e+00
    outer loop
      vertex  4.820000e+04  6.600000e+03  1.100000e+03
      vertex  7.114000e+04  6.600000e+03  1.100000e+03
      vertex  4.820000e+04  6.600000e+03  9.650000e+03
    endloop
  endfacet
  facet normal  0.000000e+00 -1.000000e+00  0.000000e+00
    outer loop
      vertex  4.820000e+04  6.600000e+03  9.650000e+03
      vertex  7.114000e+04  6.600000e+03  1.100000e+03
      vertex  7.114000e+04  6.600000e+03  9.650000e+03
    endloop
  endfacet
  facet normal  0.000000e+00  0.000000e+00  9.999999e-01
    outer loop
      vertex  4.820000e+04  6.600000e+03  9.650000e+03
      vertex  7.114000e+04  6.600000e+03  9.650000e+03
      vertex  4.820000e+04  7.930000e+03  9.650000e+03
    endloop
  endfacet
  facet normal  -0.000000e+00  0.000000e+00  9.999999e-01
    outer loop
      vertex  4.820000e+04  7.930000e+03  9.650000e+03
      vertex  7.114000e+04  6.600000e+03  9.650000e+03
      vertex  7.114000e+04  7.930000e+03  9.650000e+03
    endloop
  endfacet
  facet normal  0.000000e+00  0.000000e+00 -1.000000e+00
    outer loop
      vertex  4.820000e+04  6.600000e+03  1.100000e+03
      vertex  4.820000e+04  7.929827e+03  1.100000e+03
      vertex  7.114000e+04  6.600000e+03  1.100000e+03
    endloop
  endfacet
  facet normal  0.000000e+00  0.000000e+00 -1.000000e+00
    outer loop
      vertex  7.114000e+04  6.600000e+03  1.100000e+03
      vertex  4.820000e+04  7.929827e+03  1.100000e+03
      vertex  7.114000e+04  7.929827e+03  1.100000e+03
    endloop
  endfacet
  facet normal  1.000000e+00  -0.000000e+00  0.000000e+00
    outer loop
      vertex  7.114000e+04  7.930000e+03  9.650000e+03
      vertex  7.114000e+04  6.600000e+03  9.650000e+03
      vertex  7.114000e+04  7.930000e+03  1.124110e+03
    endloop
  endfacet
  facet normal  1.000000e+00  0.000000e+00  0.000000e+00
    outer loop
      vertex  7.114000e+04  7.930000e+03  1.124110e+03
      vertex  7.114000e+04  6.600000e+03  9.650000e+03
      vertex  7.114000e+04  6.600000e+03  1.100000e+03
    endloop
  endfacet
  facet normal  9.999999e-01  0.000000e+00  0.000000e+00
    outer loop
      vertex  7.114000e+04  7.930000e+03  1.124110e+03
      vertex  7.114000e+04  6.600000e+03  1.100000e+03
      vertex  7.114000e+04  7.929827e+03  1.100000e+03
    endloop
  endfacet
  facet normal  0.000000e+00  9.999999e-01  0.000000e+00
    outer loop
      vertex  4.820000e+04  7.930000e+03  9.650000e+03
      vertex  7.114000e+04  7.930000e+03  9.650000e+03
      vertex  4.820000e+04  7.930000e+03  1.124110e+03
    endloop
  endfacet
  facet normal  0.000000e+00  9.999999e-01  0.000000e+00
    outer loop
      vertex  4.820000e+04  7.930000e+03  1.124110e+03
      vertex  7.114000e+04  7.930000e+03  9.650000e+03
      vertex  7.114000e+04  7.930000e+03  1.124110e+03
    endloop
  endfacet
  facet normal -9.999999e-01  0.000000e+00  0.000000e+00
    outer loop
      vertex  4.820000e+04  7.929827e+03  1.100000e+03
      vertex  4.820000e+04  6.600000e+03  1.100000e+03
      vertex  4.820000e+04  7.930000e+03  1.124110e+03
    endloop
  endfacet
  facet normal -1.000000e+00  -0.000000e+00  0.000000e+00
    outer loop
      vertex  4.820000e+04  7.930000e+03  1.124110e+03
      vertex  4.820000e+04  6.600000e+03  1.100000e+03
      vertex  4.820000e+04  6.600000e+03  9.650000e+03
    endloop
  endfacet
  facet normal -1.000000e+00  0.000000e+00  0.000000e+00
    outer loop
      vertex  4.820000e+04  7.930000e+03  1.124110e+03
      vertex  4.820000e+04  6.600000e+03  9.650000e+03
      vertex  4.820000e+04  7.930000e+03  9.650000e+03
    endloop
  endfacet
  facet normal  0.000000e+00  9.999743e-01 -7.169109e-03
    outer loop
      vertex  7.114000e+04  7.930000e+03  1.124110e+03
      vertex  7.114000e+04  7.929827e+03  1.100000e+03
      vertex  4.820000e+04  7.930000e+03  1.124110e+03
    endloop
  endfacet
  facet normal  0.000000e+00  9.999743e-01 -7.169109e-03
    outer loop
      vertex  4.820000e+04  7.930000e+03  1.124110e+03
      vertex  7.114000e+04  7.929827e+03  1.100000e+03
      vertex  4.820000e+04  7.929827e+03  1.100000e+03
    endloop
  endfacet
endsolid CATIA STL
