solid CATIA STL
  facet normal  0.000000e+00 -1.000000e+00  0.000000e+00
    outer loop
      vertex  9.500000e+03  3.930000e+03  6.313000e+03
      vertex  1.090000e+04  3.930000e+03  6.313000e+03
      vertex  9.500000e+03  3.930000e+03  9.650000e+03
    endloop
  endfacet
  facet normal  0.000000e+00 -1.000000e+00  0.000000e+00
    outer loop
      vertex  9.500000e+03  3.930000e+03  9.650000e+03
      vertex  1.090000e+04  3.930000e+03  6.313000e+03
      vertex  1.090000e+04  3.930000e+03  9.650000e+03
    endloop
  endfacet
  facet normal  1.000000e+00  0.000000e+00  0.000000e+00
    outer loop
      vertex  1.090000e+04  3.930000e+03  6.313000e+03
      vertex  1.090000e+04  5.250000e+03  6.313000e+03
      vertex  1.090000e+04  3.930000e+03  9.650000e+03
    endloop
  endfacet
  facet normal  1.000000e+00  -0.000000e+00  0.000000e+00
    outer loop
      vertex  1.090000e+04  3.930000e+03  9.650000e+03
      vertex  1.090000e+04  5.250000e+03  6.313000e+03
      vertex  1.090000e+04  5.250000e+03  9.650000e+03
    endloop
  endfacet
  facet normal  0.000000e+00  1.000000e+00  0.000000e+00
    outer loop
      vertex  1.090000e+04  5.250000e+03  6.313000e+03
      vertex  9.500000e+03  5.250000e+03  6.313000e+03
      vertex  1.090000e+04  5.250000e+03  9.650000e+03
    endloop
  endfacet
  facet normal  0.000000e+00  1.000000e+00  0.000000e+00
    outer loop
      vertex  1.090000e+04  5.250000e+03  9.650000e+03
      vertex  9.500000e+03  5.250000e+03  6.313000e+03
      vertex  9.500000e+03  5.250000e+03  9.650000e+03
    endloop
  endfacet
  facet normal -1.000000e+00  0.000000e+00  0.000000e+00
    outer loop
      vertex  9.500000e+03  5.250000e+03  6.313000e+03
      vertex  9.500000e+03  3.930000e+03  6.313000e+03
      vertex  9.500000e+03  5.250000e+03  9.650000e+03
    endloop
  endfacet
  facet normal -1.000000e+00  -0.000000e+00  0.000000e+00
    outer loop
      vertex  9.500000e+03  5.250000e+03  9.650000e+03
      vertex  9.500000e+03  3.930000e+03  6.313000e+03
      vertex  9.500000e+03  3.930000e+03  9.650000e+03
    endloop
  endfacet
  facet normal  0.000000e+00  0.000000e+00  1.000000e+00
    outer loop
      vertex  9.500000e+03  3.930000e+03  9.650000e+03
      vertex  1.090000e+04  3.930000e+03  9.650000e+03
      vertex  9.500000e+03  5.250000e+03  9.650000e+03
    endloop
  endfacet
  facet normal  -0.000000e+00  0.000000e+00  1.000000e+00
    outer loop
      vertex  9.500000e+03  5.250000e+03  9.650000e+03
      vertex  1.090000e+04  3.930000e+03  9.650000e+03
      vertex  1.090000e+04  5.250000e+03  9.650000e+03
    endloop
  endfacet
  facet normal  0.000000e+00  0.000000e+00 -1.000000e+00
    outer loop
      vertex  9.500000e+03  3.930000e+03  6.313000e+03
      vertex  9.500000e+03  5.250000e+03  6.313000e+03
      vertex  1.090000e+04  3.930000e+03  6.313000e+03
    endloop
  endfacet
  facet normal  0.000000e+00  0.000000e+00 -1.000000e+00
    outer loop
      vertex  1.090000e+04  3.930000e+03  6.313000e+03
      vertex  9.500000e+03  5.250000e+03  6.313000e+03
      vertex  1.090000e+04  5.250000e+03  6.313000e+03
    endloop
  endfacet
endsolid CATIA STL
