solid CATIA STL
  facet normal  0.000000e+00  0.000000e+00 -1.000000e+00
    outer loop
      vertex  1.020000e+04 -6.100000e+02  6.000000e+02
      vertex  1.020000e+04  6.100000e+02  6.000000e+02
      vertex  1.580000e+04 -6.100000e+02  6.000000e+02
    endloop
  endfacet
  facet normal  0.000000e+00  0.000000e+00 -1.000000e+00
    outer loop
      vertex  1.580000e+04 -6.100000e+02  6.000000e+02
      vertex  1.020000e+04  6.100000e+02  6.000000e+02
      vertex  1.580000e+04  6.100000e+02  6.000000e+02
    endloop
  endfacet
  facet normal  0.000000e+00  1.000000e+00  0.000000e+00
    outer loop
      vertex  1.020000e+04  6.100000e+02  6.000000e+02
      vertex  1.020000e+04  6.100000e+02  1.600000e+03
      vertex  1.580000e+04  6.100000e+02  6.000000e+02
    endloop
  endfacet
  facet normal  0.000000e+00  1.000000e+00  -0.000000e+00
    outer loop
      vertex  1.580000e+04  6.100000e+02  6.000000e+02
      vertex  1.020000e+04  6.100000e+02  1.600000e+03
      vertex  1.580000e+04  6.100000e+02  1.600000e+03
    endloop
  endfacet
  facet normal  1.000000e+00  0.000000e+00  0.000000e+00
    outer loop
      vertex  1.580000e+04 -6.100000e+02  6.000000e+02
      vertex  1.580000e+04  6.100000e+02  6.000000e+02
      vertex  1.580000e+04 -6.100000e+02  1.600000e+03
    endloop
  endfacet
  facet normal  1.000000e+00  -0.000000e+00  0.000000e+00
    outer loop
      vertex  1.580000e+04 -6.100000e+02  1.600000e+03
      vertex  1.580000e+04  6.100000e+02  6.000000e+02
      vertex  1.580000e+04  6.100000e+02  1.600000e+03
    endloop
  endfacet
  facet normal  0.000000e+00 -1.000000e+00  0.000000e+00
    outer loop
      vertex  1.020000e+04 -6.100000e+02  6.000000e+02
      vertex  1.580000e+04 -6.100000e+02  6.000000e+02
      vertex  1.020000e+04 -6.100000e+02  1.600000e+03
    endloop
  endfacet
  facet normal  0.000000e+00 -1.000000e+00  0.000000e+00
    outer loop
      vertex  1.020000e+04 -6.100000e+02  1.600000e+03
      vertex  1.580000e+04 -6.100000e+02  6.000000e+02
      vertex  1.580000e+04 -6.100000e+02  1.600000e+03
    endloop
  endfacet
  facet normal -1.000000e+00  0.000000e+00  0.000000e+00
    outer loop
      vertex  1.020000e+04 -6.100000e+02  6.000000e+02
      vertex  1.020000e+04 -6.100000e+02  1.600000e+03
      vertex  1.020000e+04  6.100000e+02  6.000000e+02
    endloop
  endfacet
  facet normal -1.000000e+00  0.000000e+00  0.000000e+00
    outer loop
      vertex  1.020000e+04  6.100000e+02  6.000000e+02
      vertex  1.020000e+04 -6.100000e+02  1.600000e+03
      vertex  1.020000e+04  6.100000e+02  1.600000e+03
    endloop
  endfacet
  facet normal  0.000000e+00  0.000000e+00  1.000000e+00
    outer loop
      vertex  1.020000e+04 -6.100000e+02  1.600000e+03
      vertex  1.580000e+04 -6.100000e+02  1.600000e+03
      vertex  1.020000e+04  6.100000e+02  1.600000e+03
    endloop
  endfacet
  facet normal  -0.000000e+00  0.000000e+00  1.000000e+00
    outer loop
      vertex  1.020000e+04  6.100000e+02  1.600000e+03
      vertex  1.580000e+04 -6.100000e+02  1.600000e+03
      vertex  1.580000e+04  6.100000e+02  1.600000e+03
    endloop
  endfacet
endsolid CATIA STL
