solid CATIA STL
  facet normal  0.000000e+00  0.000000e+00 -9.999999e-01
    outer loop
      vertex  6.000000e+03 -5.924234e+03  7.250000e+03
      vertex  5.780685e+03 -5.860081e+03  7.250000e+03
      vertex  5.604762e+03 -5.806414e+03  7.250000e+03
    endloop
  endfacet
  facet normal  0.000000e+00  0.000000e+00 -1.000000e+00
    outer loop
      vertex  6.000000e+03 -5.924234e+03  7.250000e+03
      vertex  5.604762e+03 -5.806414e+03  7.250000e+03
      vertex  5.429679e+03 -5.750063e+03  7.250000e+03
    endloop
  endfacet
  facet normal  0.000000e+00  0.000000e+00 -1.000000e+00
    outer loop
      vertex  6.000000e+03 -5.924234e+03  7.250000e+03
      vertex  5.429679e+03 -5.750063e+03  7.250000e+03
      vertex  5.268963e+03 -5.694867e+03  7.250000e+03
    endloop
  endfacet
  facet normal  0.000000e+00  0.000000e+00 -1.000000e+00
    outer loop
      vertex  6.000000e+03 -5.924234e+03  7.250000e+03
      vertex  5.268963e+03 -5.694867e+03  7.250000e+03
      vertex  5.109305e+03 -5.635821e+03  7.250000e+03
    endloop
  endfacet
  facet normal  0.000000e+00  0.000000e+00 -1.000000e+00
    outer loop
      vertex  6.000000e+03 -5.924234e+03  7.250000e+03
      vertex  5.109305e+03 -5.635821e+03  7.250000e+03
      vertex  5.031383e+03 -5.605178e+03  7.250000e+03
    endloop
  endfacet
  facet normal  0.000000e+00  0.000000e+00 -1.000000e+00
    outer loop
      vertex  6.000000e+03 -5.924234e+03  7.250000e+03
      vertex  5.031383e+03 -5.605178e+03  7.250000e+03
      vertex  4.953825e+03 -5.573319e+03  7.250000e+03
    endloop
  endfacet
  facet normal  0.000000e+00  0.000000e+00 -9.999999e-01
    outer loop
      vertex  6.000000e+03 -5.924234e+03  7.250000e+03
      vertex  4.953825e+03 -5.573319e+03  7.250000e+03
      vertex  4.876678e+03 -5.540151e+03  7.250000e+03
    endloop
  endfacet
  facet normal  0.000000e+00  0.000000e+00 -1.000000e+00
    outer loop
      vertex  6.000000e+03 -5.924234e+03  7.250000e+03
      vertex  4.876678e+03 -5.540151e+03  7.250000e+03
      vertex  4.800000e+03 -5.505588e+03  7.250000e+03
    endloop
  endfacet
  facet normal  0.000000e+00  0.000000e+00 -1.000000e+00
    outer loop
      vertex  6.000000e+03 -5.924234e+03  7.250000e+03
      vertex  4.800000e+03 -5.505588e+03  7.250000e+03
      vertex  4.800000e+03 -3.930000e+03  7.250000e+03
    endloop
  endfacet
  facet normal  0.000000e+00  0.000000e+00 -1.000000e+00
    outer loop
      vertex  6.000000e+03 -5.924234e+03  7.250000e+03
      vertex  4.800000e+03 -3.930000e+03  7.250000e+03
      vertex  6.000000e+03 -3.930000e+03  7.250000e+03
    endloop
  endfacet
  facet normal  1.000000e+00  0.000000e+00  0.000000e+00
    outer loop
      vertex  6.000000e+03 -3.930000e+03  7.250000e+03
      vertex  6.000000e+03 -3.930000e+03  9.650000e+03
      vertex  6.000000e+03 -7.491477e+03  9.650000e+03
    endloop
  endfacet
  facet normal  1.000000e+00  0.000000e+00  0.000000e+00
    outer loop
      vertex  6.000000e+03 -3.930000e+03  7.250000e+03
      vertex  6.000000e+03 -7.491477e+03  9.650000e+03
      vertex  6.000000e+03 -7.410002e+03  9.427564e+03
    endloop
  endfacet
  facet normal  1.000000e+00  0.000000e+00  0.000000e+00
    outer loop
      vertex  6.000000e+03 -3.930000e+03  7.250000e+03
      vertex  6.000000e+03 -7.410002e+03  9.427564e+03
      vertex  6.000000e+03 -7.316724e+03  9.200791e+03
    endloop
  endfacet
  facet normal  1.000000e+00  0.000000e+00  0.000000e+00
    outer loop
      vertex  6.000000e+03 -3.930000e+03  7.250000e+03
      vertex  6.000000e+03 -7.316724e+03  9.200791e+03
      vertex  6.000000e+03 -7.215146e+03  8.979908e+03
    endloop
  endfacet
  facet normal  1.000000e+00  0.000000e+00  0.000000e+00
    outer loop
      vertex  6.000000e+03 -3.930000e+03  7.250000e+03
      vertex  6.000000e+03 -7.215146e+03  8.979908e+03
      vertex  6.000000e+03 -7.105385e+03  8.765160e+03
    endloop
  endfacet
  facet normal  9.999999e-01  0.000000e+00  0.000000e+00
    outer loop
      vertex  6.000000e+03 -3.930000e+03  7.250000e+03
      vertex  6.000000e+03 -7.105385e+03  8.765160e+03
      vertex  6.000000e+03 -6.987605e+03  8.556753e+03
    endloop
  endfacet
  facet normal  1.000000e+00  0.000000e+00  0.000000e+00
    outer loop
      vertex  6.000000e+03 -3.930000e+03  7.250000e+03
      vertex  6.000000e+03 -6.987605e+03  8.556753e+03
      vertex  6.000000e+03 -6.853726e+03  8.342171e+03
    endloop
  endfacet
  facet normal  1.000000e+00  0.000000e+00  0.000000e+00
    outer loop
      vertex  6.000000e+03 -3.930000e+03  7.250000e+03
      vertex  6.000000e+03 -6.853726e+03  8.342171e+03
      vertex  6.000000e+03 -6.711314e+03  8.135116e+03
    endloop
  endfacet
  facet normal  1.000000e+00  0.000000e+00  0.000000e+00
    outer loop
      vertex  6.000000e+03 -3.930000e+03  7.250000e+03
      vertex  6.000000e+03 -6.711314e+03  8.135116e+03
      vertex  6.000000e+03 -6.560720e+03  7.935682e+03
    endloop
  endfacet
  facet normal  9.999999e-01  0.000000e+00  0.000000e+00
    outer loop
      vertex  6.000000e+03 -3.930000e+03  7.250000e+03
      vertex  6.000000e+03 -6.560720e+03  7.935682e+03
      vertex  6.000000e+03 -6.402336e+03  7.743898e+03
    endloop
  endfacet
  facet normal  1.000000e+00  0.000000e+00  0.000000e+00
    outer loop
      vertex  6.000000e+03 -3.930000e+03  7.250000e+03
      vertex  6.000000e+03 -6.402336e+03  7.743898e+03
      vertex  6.000000e+03 -6.248817e+03  7.572809e+03
    endloop
  endfacet
  facet normal  1.000000e+00  0.000000e+00  0.000000e+00
    outer loop
      vertex  6.000000e+03 -3.930000e+03  7.250000e+03
      vertex  6.000000e+03 -6.248817e+03  7.572809e+03
      vertex  6.000000e+03 -6.089325e+03  7.408213e+03
    endloop
  endfacet
  facet normal  1.000000e+00  0.000000e+00  0.000000e+00
    outer loop
      vertex  6.000000e+03 -3.930000e+03  7.250000e+03
      vertex  6.000000e+03 -6.089325e+03  7.408213e+03
      vertex  6.000000e+03 -5.924234e+03  7.250000e+03
    endloop
  endfacet
  facet normal -1.896286e-01 -6.793522e-01 -7.088875e-01
    outer loop
      vertex  6.000000e+03 -6.089325e+03  7.408213e+03
      vertex  5.838253e+03 -6.034335e+03  7.398782e+03
      vertex  6.000000e+03 -5.924234e+03  7.250000e+03
    endloop
  endfacet
  facet normal -2.004258e-01 -6.570007e-01 -7.267596e-01
    outer loop
      vertex  5.604762e+03 -5.806414e+03  7.250000e+03
      vertex  5.780685e+03 -5.860081e+03  7.250000e+03
      vertex  5.673250e+03 -5.860234e+03  7.279767e+03
    endloop
  endfacet
  facet normal -1.607300e-01 -9.267847e-01 -3.394645e-01
    outer loop
      vertex  5.865951e+03 -7.425075e+03  9.532184e+03
      vertex  6.000000e+03 -7.410002e+03  9.427564e+03
      vertex  6.000000e+03 -7.491477e+03  9.650000e+03
    endloop
  endfacet
  facet normal -2.155655e-01 -6.587242e-01 -7.208426e-01
    outer loop
      vertex  5.530032e+03 -5.851850e+03  7.313006e+03
      vertex  5.387898e+03 -5.832776e+03  7.338081e+03
      vertex  5.429679e+03 -5.750063e+03  7.250000e+03
    endloop
  endfacet
  facet normal -2.113097e-01 -6.565382e-01 -7.240895e-01
    outer loop
      vertex  5.604762e+03 -5.806414e+03  7.250000e+03
      vertex  5.530032e+03 -5.851850e+03  7.313006e+03
      vertex  5.429679e+03 -5.750063e+03  7.250000e+03
    endloop
  endfacet
  facet normal -2.061162e-01 -6.612294e-01 -7.213126e-01
    outer loop
      vertex  5.604762e+03 -5.806414e+03  7.250000e+03
      vertex  5.673250e+03 -5.860234e+03  7.279767e+03
      vertex  5.530032e+03 -5.851850e+03  7.313006e+03
    endloop
  endfacet
  facet normal -2.281977e-01 -6.561851e-01 -7.192684e-01
    outer loop
      vertex  5.387898e+03 -5.832776e+03  7.338081e+03
      vertex  5.238375e+03 -5.811359e+03  7.365980e+03
      vertex  5.268963e+03 -5.694867e+03  7.250000e+03
    endloop
  endfacet
  facet normal -2.248811e-01 -6.547973e-01 -7.215739e-01
    outer loop
      vertex  5.429679e+03 -5.750063e+03  7.250000e+03
      vertex  5.387898e+03 -5.832776e+03  7.338081e+03
      vertex  5.268963e+03 -5.694867e+03  7.250000e+03
    endloop
  endfacet
  facet normal -2.434576e-01 -6.529034e-01 -7.172486e-01
    outer loop
      vertex  5.238375e+03 -5.811359e+03  7.365980e+03
      vertex  5.090455e+03 -5.783209e+03  7.390564e+03
      vertex  5.109305e+03 -5.635821e+03  7.250000e+03
    endloop
  endfacet
  facet normal -2.411932e-01 -6.521787e-01 -7.186716e-01
    outer loop
      vertex  5.268963e+03 -5.694867e+03  7.250000e+03
      vertex  5.238375e+03 -5.811359e+03  7.365980e+03
      vertex  5.109305e+03 -5.635821e+03  7.250000e+03
    endloop
  endfacet
  facet normal -2.555834e-01 -6.499158e-01 -7.157420e-01
    outer loop
      vertex  5.109305e+03 -5.635821e+03  7.250000e+03
      vertex  5.090455e+03 -5.783209e+03  7.390564e+03
      vertex  5.031383e+03 -5.605178e+03  7.250000e+03
    endloop
  endfacet
  facet normal -2.778667e-01 -6.451824e-01 -7.117090e-01
    outer loop
      vertex  4.944281e+03 -5.747374e+03  7.411458e+03
      vertex  4.800000e+03 -5.552927e+03  7.291518e+03
      vertex  4.876678e+03 -5.540151e+03  7.250000e+03
    endloop
  endfacet
  facet normal -2.773798e-01 -6.451760e-01 -7.119048e-01
    outer loop
      vertex  4.953825e+03 -5.573319e+03  7.250000e+03
      vertex  4.944281e+03 -5.747374e+03  7.411458e+03
      vertex  4.876678e+03 -5.540151e+03  7.250000e+03
    endloop
  endfacet
  facet normal -2.897235e-01 -6.990145e-01 -6.537883e-01
    outer loop
      vertex  4.946173e+03 -6.119967e+03  7.790897e+03
      vertex  4.800000e+03 -6.090688e+03  7.824369e+03
      vertex  4.800000e+03 -5.918113e+03  7.639855e+03
    endloop
  endfacet
  facet normal -2.857754e-01 -6.981460e-01 -6.564485e-01
    outer loop
      vertex  4.800000e+03 -5.918113e+03  7.639855e+03
      vertex  4.945228e+03 -5.937378e+03  7.597121e+03
      vertex  4.946173e+03 -6.119967e+03  7.790897e+03
    endloop
  endfacet
  facet normal -2.894731e-01 -6.735448e-01 -6.801050e-01
    outer loop
      vertex  4.945228e+03 -5.937378e+03  7.597121e+03
      vertex  4.800000e+03 -5.918113e+03  7.639855e+03
      vertex  4.800000e+03 -5.738763e+03  7.462235e+03
    endloop
  endfacet
  facet normal -2.813616e-01 -6.713703e-01 -6.856366e-01
    outer loop
      vertex  4.800000e+03 -5.738763e+03  7.462235e+03
      vertex  4.944281e+03 -5.747374e+03  7.411458e+03
      vertex  4.945228e+03 -5.937378e+03  7.597121e+03
    endloop
  endfacet
  facet normal -2.869471e-01 -6.480652e-01 -7.054594e-01
    outer loop
      vertex  4.944281e+03 -5.747374e+03  7.411458e+03
      vertex  4.800000e+03 -5.738763e+03  7.462235e+03
      vertex  4.800000e+03 -5.552927e+03  7.291518e+03
    endloop
  endfacet
  facet normal -2.849012e-01 -6.320463e-01 -7.206587e-01
    outer loop
      vertex  4.876678e+03 -5.540151e+03  7.250000e+03
      vertex  4.800000e+03 -5.552927e+03  7.291518e+03
      vertex  4.800000e+03 -5.505588e+03  7.250000e+03
    endloop
  endfacet
  facet normal -1.723083e-01 -9.195226e-01 -3.532536e-01
    outer loop
      vertex  5.864713e+03 -7.380375e+03  9.416434e+03
      vertex  6.000000e+03 -7.410002e+03  9.427564e+03
      vertex  5.865951e+03 -7.425075e+03  9.532184e+03
    endloop
  endfacet
  facet normal -1.687780e-01 -9.115528e-01 -3.749474e-01
    outer loop
      vertex  6.000000e+03 -7.316724e+03  9.200791e+03
      vertex  6.000000e+03 -7.410002e+03  9.427564e+03
      vertex  5.864713e+03 -7.380375e+03  9.416434e+03
    endloop
  endfacet
  facet normal -1.785522e-01 -8.761247e-01 -4.477997e-01
    outer loop
      vertex  6.000000e+03 -7.105385e+03  8.765160e+03
      vertex  6.000000e+03 -7.215146e+03  8.979908e+03
      vertex  5.859759e+03 -7.183389e+03  8.973694e+03
    endloop
  endfacet
  facet normal -1.864466e-01 -8.724523e-01 -4.517350e-01
    outer loop
      vertex  5.857280e+03 -7.074381e+03  8.764187e+03
      vertex  6.000000e+03 -7.105385e+03  8.765160e+03
      vertex  5.859759e+03 -7.183389e+03  8.973694e+03
    endloop
  endfacet
  facet normal -1.826429e-01 -8.559477e-01 -4.837305e-01
    outer loop
      vertex  6.000000e+03 -6.987605e+03  8.556753e+03
      vertex  6.000000e+03 -7.105385e+03  8.765160e+03
      vertex  5.857280e+03 -7.074381e+03  8.764187e+03
    endloop
  endfacet
  facet normal -1.839846e-01 -7.844169e-01 -5.923174e-01
    outer loop
      vertex  5.847909e+03 -6.604141e+03  8.040427e+03
      vertex  6.000000e+03 -6.560720e+03  7.935682e+03
      vertex  6.000000e+03 -6.711314e+03  8.135116e+03
    endloop
  endfacet
  facet normal -1.966210e-01 -7.713662e-01 -6.052557e-01
    outer loop
      vertex  5.845979e+03 -6.496665e+03  7.904082e+03
      vertex  6.000000e+03 -6.560720e+03  7.935682e+03
      vertex  5.847909e+03 -6.604141e+03  8.040427e+03
    endloop
  endfacet
  facet normal -1.917487e-01 -7.048268e-01 -6.829727e-01
    outer loop
      vertex  6.000000e+03 -6.089325e+03  7.408213e+03
      vertex  6.000000e+03 -6.248817e+03  7.572809e+03
      vertex  5.841151e+03 -6.213516e+03  7.580976e+03
    endloop
  endfacet
  facet normal -1.981427e-01 -7.004153e-01 -6.856805e-01
    outer loop
      vertex  5.838253e+03 -6.034335e+03  7.398782e+03
      vertex  6.000000e+03 -6.089325e+03  7.408213e+03
      vertex  5.841151e+03 -6.213516e+03  7.580976e+03
    endloop
  endfacet
  facet normal -1.855739e-01 -8.996043e-01 -3.953155e-01
    outer loop
      vertex  5.699064e+03 -7.238832e+03  9.161535e+03
      vertex  5.862237e+03 -7.285463e+03  9.191054e+03
      vertex  5.700843e+03 -7.308955e+03  9.320277e+03
    endloop
  endfacet
  facet normal -1.897179e-01 -8.795208e-01 -4.364061e-01
    outer loop
      vertex  5.696394e+03 -7.126921e+03  8.930910e+03
      vertex  5.859759e+03 -7.183389e+03  8.973694e+03
      vertex  5.697729e+03 -7.183873e+03  9.045108e+03
    endloop
  endfacet
  facet normal -1.833554e-01 -8.729534e-01 -4.520322e-01
    outer loop
      vertex  5.857280e+03 -7.074381e+03  8.764187e+03
      vertex  5.859759e+03 -7.183389e+03  8.973694e+03
      vertex  5.696394e+03 -7.126921e+03  8.930910e+03
    endloop
  endfacet
  facet normal -1.986146e-01 -8.634157e-01 -4.637516e-01
    outer loop
      vertex  5.693722e+03 -7.007167e+03  8.709095e+03
      vertex  5.857280e+03 -7.074381e+03  8.764187e+03
      vertex  5.696394e+03 -7.126921e+03  8.930910e+03
    endloop
  endfacet
  facet normal -2.022900e-01 -8.419036e-01 -5.002769e-01
    outer loop
      vertex  5.691050e+03 -6.879830e+03  8.495884e+03
      vertex  5.854801e+03 -6.958674e+03  8.562354e+03
      vertex  5.693722e+03 -7.007167e+03  8.709095e+03
    endloop
  endfacet
  facet normal -1.893637e-01 -8.323893e-01 -5.208353e-01
    outer loop
      vertex  5.852320e+03 -6.836508e+03  8.368014e+03
      vertex  5.854801e+03 -6.958674e+03  8.562354e+03
      vertex  5.691050e+03 -6.879830e+03  8.495884e+03
    endloop
  endfacet
  facet normal -2.048018e-01 -8.191229e-01 -5.358114e-01
    outer loop
      vertex  5.688377e+03 -6.745184e+03  8.291064e+03
      vertex  5.852320e+03 -6.836508e+03  8.368014e+03
      vertex  5.691050e+03 -6.879830e+03  8.495884e+03
    endloop
  endfacet
  facet normal -1.915401e-01 -8.103883e-01 -5.536995e-01
    outer loop
      vertex  5.688377e+03 -6.745184e+03  8.291064e+03
      vertex  5.849839e+03 -6.708128e+03  8.180977e+03
      vertex  5.852320e+03 -6.836508e+03  8.368014e+03
    endloop
  endfacet
  facet normal -2.062193e-01 -7.952495e-01 -5.701332e-01
    outer loop
      vertex  5.849839e+03 -6.708128e+03  8.180977e+03
      vertex  5.688377e+03 -6.745184e+03  8.291064e+03
      vertex  5.685703e+03 -6.603508e+03  8.094416e+03
    endloop
  endfacet
  facet normal -1.965992e-01 -7.894942e-01 -5.814187e-01
    outer loop
      vertex  5.685703e+03 -6.603508e+03  8.094416e+03
      vertex  5.847909e+03 -6.604141e+03  8.040427e+03
      vertex  5.849839e+03 -6.708128e+03  8.180977e+03
    endloop
  endfacet
  facet normal -2.311427e-01 -6.849079e-01 -6.909950e-01
    outer loop
      vertex  5.389253e+03 -5.930534e+03  7.430471e+03
      vertex  5.390609e+03 -6.026448e+03  7.525086e+03
      vertex  5.240663e+03 -6.003193e+03  7.552194e+03
    endloop
  endfacet
  facet normal -1.885614e-01 -9.122249e-01 -3.637174e-01
    outer loop
      vertex  5.117320e+03 -7.322538e+03  9.650000e+03
      vertex  5.260250e+03 -7.305286e+03  9.532634e+03
      vertex  5.181100e+03 -7.335721e+03  9.650000e+03
    endloop
  endfacet
  facet normal -2.489792e-01 -7.124421e-01 -6.560758e-01
    outer loop
      vertex  5.241807e+03 -6.096309e+03  7.648563e+03
      vertex  5.242950e+03 -6.187495e+03  7.747149e+03
      vertex  5.093863e+03 -6.156896e+03  7.770500e+03
    endloop
  endfacet
  facet normal -2.660522e-01 -6.476886e-01 -7.139438e-01
    outer loop
      vertex  4.953825e+03 -5.573319e+03  7.250000e+03
      vertex  5.031383e+03 -5.605178e+03  7.250000e+03
      vertex  4.944281e+03 -5.747374e+03  7.411458e+03
    endloop
  endfacet
  facet normal -1.969904e-01 -6.734378e-01 -7.125140e-01
    outer loop
      vertex  6.000000e+03 -5.924234e+03  7.250000e+03
      vertex  5.838253e+03 -6.034335e+03  7.398782e+03
      vertex  5.780685e+03 -5.860081e+03  7.250000e+03
    endloop
  endfacet
  facet normal -1.934025e-01 -6.732458e-01 -7.136775e-01
    outer loop
      vertex  5.780685e+03 -5.860081e+03  7.250000e+03
      vertex  5.838253e+03 -6.034335e+03  7.398782e+03
      vertex  5.674795e+03 -5.959307e+03  7.372300e+03
    endloop
  endfacet
  facet normal -1.971310e-01 -6.708216e-01 -7.149390e-01
    outer loop
      vertex  5.780685e+03 -5.860081e+03  7.250000e+03
      vertex  5.674795e+03 -5.959307e+03  7.372300e+03
      vertex  5.673250e+03 -5.860234e+03  7.279767e+03
    endloop
  endfacet
  facet normal -2.078759e-01 -6.693943e-01 -7.132314e-01
    outer loop
      vertex  5.673250e+03 -5.860234e+03  7.279767e+03
      vertex  5.674795e+03 -5.959307e+03  7.372300e+03
      vertex  5.531489e+03 -5.948557e+03  7.403978e+03
    endloop
  endfacet
  facet normal -2.044760e-01 -6.723372e-01 -7.114438e-01
    outer loop
      vertex  5.673250e+03 -5.860234e+03  7.279767e+03
      vertex  5.531489e+03 -5.948557e+03  7.403978e+03
      vertex  5.530032e+03 -5.851850e+03  7.313006e+03
    endloop
  endfacet
  facet normal -2.170961e-01 -6.705732e-01 -7.093665e-01
    outer loop
      vertex  5.530032e+03 -5.851850e+03  7.313006e+03
      vertex  5.531489e+03 -5.948557e+03  7.403978e+03
      vertex  5.389253e+03 -5.930534e+03  7.430471e+03
    endloop
  endfacet
  facet normal -2.151756e-01 -6.723587e-01 -7.082608e-01
    outer loop
      vertex  5.530032e+03 -5.851850e+03  7.313006e+03
      vertex  5.389253e+03 -5.930534e+03  7.430471e+03
      vertex  5.387898e+03 -5.832776e+03  7.338081e+03
    endloop
  endfacet
  facet normal -2.490141e-01 -6.670591e-01 -7.021568e-01
    outer loop
      vertex  5.387898e+03 -5.832776e+03  7.338081e+03
      vertex  5.389253e+03 -5.930534e+03  7.430471e+03
      vertex  5.240663e+03 -6.003193e+03  7.552194e+03
    endloop
  endfacet
  facet normal -2.274733e-01 -6.796552e-01 -6.973698e-01
    outer loop
      vertex  5.387898e+03 -5.832776e+03  7.338081e+03
      vertex  5.240663e+03 -6.003193e+03  7.552194e+03
      vertex  5.238375e+03 -5.811359e+03  7.365980e+03
    endloop
  endfacet
  facet normal -2.466700e-01 -6.765098e-01 -6.938936e-01
    outer loop
      vertex  5.238375e+03 -5.811359e+03  7.365980e+03
      vertex  5.240663e+03 -6.003193e+03  7.552194e+03
      vertex  5.092159e+03 -5.973789e+03  7.576318e+03
    endloop
  endfacet
  facet normal -2.442513e-01 -6.779608e-01 -6.933328e-01
    outer loop
      vertex  5.238375e+03 -5.811359e+03  7.365980e+03
      vertex  5.092159e+03 -5.973789e+03  7.576318e+03
      vertex  5.090455e+03 -5.783209e+03  7.390564e+03
    endloop
  endfacet
  facet normal -1.739403e-01 -8.946839e-01 -4.114433e-01
    outer loop
      vertex  6.000000e+03 -7.215146e+03  8.979908e+03
      vertex  6.000000e+03 -7.316724e+03  9.200791e+03
      vertex  5.862237e+03 -7.285463e+03  9.191054e+03
    endloop
  endfacet
  facet normal -1.790417e-01 -9.074231e-01 -3.801675e-01
    outer loop
      vertex  5.862237e+03 -7.285463e+03  9.191054e+03
      vertex  6.000000e+03 -7.316724e+03  9.200791e+03
      vertex  5.864713e+03 -7.380375e+03  9.416434e+03
    endloop
  endfacet
  facet normal -1.725637e-01 -9.084640e-01 -3.806770e-01
    outer loop
      vertex  5.862237e+03 -7.285463e+03  9.191054e+03
      vertex  5.864713e+03 -7.380375e+03  9.416434e+03
      vertex  5.700843e+03 -7.308955e+03  9.320277e+03
    endloop
  endfacet
  facet normal -1.928740e-01 -9.160331e-01 -3.516861e-01
    outer loop
      vertex  5.700843e+03 -7.308955e+03  9.320277e+03
      vertex  5.864713e+03 -7.380375e+03  9.416434e+03
      vertex  5.865951e+03 -7.425075e+03  9.532184e+03
    endloop
  endfacet
  facet normal -1.662503e-01 -9.135924e-01 -3.710926e-01
    outer loop
      vertex  5.700843e+03 -7.308955e+03  9.320277e+03
      vertex  5.865951e+03 -7.425075e+03  9.532184e+03
      vertex  5.702622e+03 -7.375408e+03  9.483080e+03
    endloop
  endfacet
  facet normal -1.907347e-01 -9.319860e-01 -3.082570e-01
    outer loop
      vertex  5.702622e+03 -7.375408e+03  9.483080e+03
      vertex  5.865951e+03 -7.425075e+03  9.532184e+03
      vertex  6.000000e+03 -7.491477e+03  9.650000e+03
    endloop
  endfacet
  facet normal -1.672099e-01 -9.237875e-01 -3.444670e-01
    outer loop
      vertex  5.702622e+03 -7.375408e+03  9.483080e+03
      vertex  6.000000e+03 -7.491477e+03  9.650000e+03
      vertex  5.677047e+03 -7.433021e+03  9.650000e+03
    endloop
  endfacet
  facet normal -1.813743e-01 -9.206977e-01 -3.455708e-01
    outer loop
      vertex  5.702622e+03 -7.375408e+03  9.483080e+03
      vertex  5.677047e+03 -7.433021e+03  9.650000e+03
      vertex  5.557992e+03 -7.348127e+03  9.486308e+03
    endloop
  endfacet
  facet normal -1.790517e-01 -9.205464e-01 -3.471816e-01
    outer loop
      vertex  5.557992e+03 -7.348127e+03  9.486308e+03
      vertex  5.677047e+03 -7.433021e+03  9.650000e+03
      vertex  5.272069e+03 -7.354250e+03  9.650000e+03
    endloop
  endfacet
  facet normal -1.864227e-01 -9.142082e-01 -3.598194e-01
    outer loop
      vertex  5.557992e+03 -7.348127e+03  9.486308e+03
      vertex  5.272069e+03 -7.354250e+03  9.650000e+03
      vertex  5.413428e+03 -7.319867e+03  9.489404e+03
    endloop
  endfacet
  facet normal -1.862280e-01 -9.143069e-01 -3.596692e-01
    outer loop
      vertex  5.413428e+03 -7.319867e+03  9.489404e+03
      vertex  5.272069e+03 -7.354250e+03  9.650000e+03
      vertex  5.181100e+03 -7.335721e+03  9.650000e+03
    endloop
  endfacet
  facet normal -1.896048e-01 -9.117744e-01 -3.643043e-01
    outer loop
      vertex  5.413428e+03 -7.319867e+03  9.489404e+03
      vertex  5.181100e+03 -7.335721e+03  9.650000e+03
      vertex  5.260250e+03 -7.305286e+03  9.532634e+03
    endloop
  endfacet
  facet normal -2.517201e-01 -7.404350e-01 -6.232119e-01
    outer loop
      vertex  5.094730e+03 -6.247174e+03  7.872697e+03
      vertex  5.244474e+03 -6.305997e+03  7.882102e+03
      vertex  5.095597e+03 -6.335392e+03  7.977158e+03
    endloop
  endfacet
  facet normal -2.454700e-01 -7.485737e-01 -6.159398e-01
    outer loop
      vertex  5.095597e+03 -6.335392e+03  7.977158e+03
      vertex  5.244474e+03 -6.305997e+03  7.882102e+03
      vertex  5.245999e+03 -6.420887e+03  8.021124e+03
    endloop
  endfacet
  facet normal -2.512619e-01 -7.540757e-01 -6.068255e-01
    outer loop
      vertex  5.095597e+03 -6.335392e+03  7.977158e+03
      vertex  5.245999e+03 -6.420887e+03  8.021124e+03
      vertex  5.096433e+03 -6.418410e+03  8.079975e+03
    endloop
  endfacet
  facet normal -2.459843e-01 -7.668042e-01 -5.928770e-01
    outer loop
      vertex  5.096433e+03 -6.418410e+03  8.079975e+03
      vertex  5.245999e+03 -6.420887e+03  8.021124e+03
      vertex  5.247522e+03 -6.532066e+03  8.164286e+03
    endloop
  endfacet
  facet normal -2.478808e-01 -7.677900e-01 -5.908074e-01
    outer loop
      vertex  5.096433e+03 -6.418410e+03  8.079975e+03
      vertex  5.247522e+03 -6.532066e+03  8.164286e+03
      vertex  5.097268e+03 -6.499448e+03  8.184938e+03
    endloop
  endfacet
  facet normal -2.484543e-01 -7.866020e-01 -5.652679e-01
    outer loop
      vertex  5.097268e+03 -6.499448e+03  8.184938e+03
      vertex  5.247522e+03 -6.532066e+03  8.164286e+03
      vertex  5.249481e+03 -6.669410e+03  8.354547e+03
    endloop
  endfacet
  facet normal -2.447008e-01 -7.858760e-01 -5.679088e-01
    outer loop
      vertex  5.097268e+03 -6.499448e+03  8.184938e+03
      vertex  5.249481e+03 -6.669410e+03  8.354547e+03
      vertex  5.098727e+03 -6.636162e+03  8.373495e+03
    endloop
  endfacet
  facet normal -2.455475e-01 -8.090238e-01 -5.340289e-01
    outer loop
      vertex  5.098727e+03 -6.636162e+03  8.373495e+03
      vertex  5.249481e+03 -6.669410e+03  8.354547e+03
      vertex  5.251439e+03 -6.800280e+03  8.551908e+03
    endloop
  endfacet
  facet normal -2.399759e-01 -8.080992e-01 -5.379474e-01
    outer loop
      vertex  5.098727e+03 -6.636162e+03  8.373495e+03
      vertex  5.251439e+03 -6.800280e+03  8.551908e+03
      vertex  5.100185e+03 -6.766596e+03  8.568782e+03
    endloop
  endfacet
  facet normal -2.409800e-01 -8.306097e-01 -5.020121e-01
    outer loop
      vertex  5.100185e+03 -6.766596e+03  8.568782e+03
      vertex  5.251439e+03 -6.800280e+03  8.551908e+03
      vertex  5.253396e+03 -6.924507e+03  8.756510e+03
    endloop
  endfacet
  facet normal -2.333916e-01 -8.295530e-01 -5.073165e-01
    outer loop
      vertex  5.100185e+03 -6.766596e+03  8.568782e+03
      vertex  5.253396e+03 -6.924507e+03  8.756510e+03
      vertex  5.101642e+03 -6.890618e+03  8.770909e+03
    endloop
  endfacet
  facet normal -2.346372e-01 -8.512456e-01 -4.693892e-01
    outer loop
      vertex  5.101642e+03 -6.890618e+03  8.770909e+03
      vertex  5.253396e+03 -6.924507e+03  8.756510e+03
      vertex  5.255353e+03 -7.041934e+03  8.968486e+03
    endloop
  endfacet
  facet normal -2.248230e-01 -8.501282e-01 -4.761687e-01
    outer loop
      vertex  5.101642e+03 -6.890618e+03  8.770909e+03
      vertex  5.255353e+03 -7.041934e+03  8.968486e+03
      vertex  5.103098e+03 -7.008109e+03  8.979985e+03
    endloop
  endfacet
  facet normal -2.264140e-01 -8.708320e-01 -4.363352e-01
    outer loop
      vertex  5.103098e+03 -7.008109e+03  8.979985e+03
      vertex  5.255353e+03 -7.041934e+03  8.968486e+03
      vertex  5.257309e+03 -7.152417e+03  9.187973e+03
    endloop
  endfacet
  facet normal -2.141488e-01 -8.697230e-01 -4.446597e-01
    outer loop
      vertex  5.103098e+03 -7.008109e+03  8.979985e+03
      vertex  5.257309e+03 -7.152417e+03  9.187973e+03
      vertex  5.104554e+03 -7.118970e+03  9.196120e+03
    endloop
  endfacet
  facet normal -2.158255e-01 -8.854264e-01 -4.116302e-01
    outer loop
      vertex  5.104554e+03 -7.118970e+03  9.196120e+03
      vertex  5.257309e+03 -7.152417e+03  9.187973e+03
      vertex  5.258295e+03 -7.205483e+03  9.301602e+03
    endloop
  endfacet
  facet normal -2.084880e-01 -8.830662e-01 -4.203890e-01
    outer loop
      vertex  5.104554e+03 -7.118970e+03  9.196120e+03
      vertex  5.258295e+03 -7.205483e+03  9.301602e+03
      vertex  5.105295e+03 -7.172861e+03  9.308956e+03
    endloop
  endfacet
  facet normal -2.096982e-01 -8.945061e-01 -3.948234e-01
    outer loop
      vertex  5.105295e+03 -7.172861e+03  9.308956e+03
      vertex  5.258295e+03 -7.205483e+03  9.301602e+03
      vertex  5.259281e+03 -7.256734e+03  9.417191e+03
    endloop
  endfacet
  facet normal -2.018158e-01 -8.921298e-01 -4.041964e-01
    outer loop
      vertex  5.105295e+03 -7.172861e+03  9.308956e+03
      vertex  5.259281e+03 -7.256734e+03  9.417191e+03
      vertex  5.106036e+03 -7.225001e+03  9.423667e+03
    endloop
  endfacet
  facet normal -2.030092e-01 -9.032052e-01 -3.781634e-01
    outer loop
      vertex  5.106036e+03 -7.225001e+03  9.423667e+03
      vertex  5.259281e+03 -7.256734e+03  9.417191e+03
      vertex  5.260250e+03 -7.305286e+03  9.532634e+03
    endloop
  endfacet
  facet normal -1.945468e-01 -9.007502e-01 -3.883307e-01
    outer loop
      vertex  5.106036e+03 -7.225001e+03  9.423667e+03
      vertex  5.260250e+03 -7.305286e+03  9.532634e+03
      vertex  5.106750e+03 -7.273563e+03  9.535950e+03
    endloop
  endfacet
  facet normal -1.955922e-01 -9.075581e-01 -3.715937e-01
    outer loop
      vertex  5.106750e+03 -7.273563e+03  9.535950e+03
      vertex  5.260250e+03 -7.305286e+03  9.532634e+03
      vertex  5.117320e+03 -7.322538e+03  9.650000e+03
    endloop
  endfacet
  facet normal -1.899700e-01 -9.083917e-01 -3.724727e-01
    outer loop
      vertex  5.106750e+03 -7.273563e+03  9.535950e+03
      vertex  5.117320e+03 -7.322538e+03  9.650000e+03
      vertex  5.053556e+03 -7.309203e+03  9.650000e+03
    endloop
  endfacet
  facet normal -1.920293e-01 -9.076583e-01 -3.732040e-01
    outer loop
      vertex  5.053556e+03 -7.309203e+03  9.650000e+03
      vertex  4.989806e+03 -7.295715e+03  9.650000e+03
      vertex  5.106750e+03 -7.273563e+03  9.535950e+03
    endloop
  endfacet
  facet normal -1.954846e-01 -9.056190e-01 -3.763510e-01
    outer loop
      vertex  5.106750e+03 -7.273563e+03  9.535950e+03
      vertex  4.989806e+03 -7.295715e+03  9.650000e+03
      vertex  4.829596e+03 -7.261133e+03  9.650000e+03
    endloop
  endfacet
  facet normal -2.006370e-01 -8.988606e-01 -3.896082e-01
    outer loop
      vertex  5.106750e+03 -7.273563e+03  9.535950e+03
      vertex  4.829596e+03 -7.261133e+03  9.650000e+03
      vertex  4.953322e+03 -7.240655e+03  9.539040e+03
    endloop
  endfacet
  facet normal -1.975303e-01 -9.008808e-01 -3.865170e-01
    outer loop
      vertex  4.953322e+03 -7.240655e+03  9.539040e+03
      vertex  4.829596e+03 -7.261133e+03  9.650000e+03
      vertex  4.800000e+03 -7.254644e+03  9.650000e+03
    endloop
  endfacet
  facet normal -2.072616e-01 -8.932208e-01 -3.989978e-01
    outer loop
      vertex  4.953322e+03 -7.240655e+03  9.539040e+03
      vertex  4.800000e+03 -7.254644e+03  9.650000e+03
      vertex  4.800000e+03 -7.197918e+03  9.523012e+03
    endloop
  endfacet
  facet normal -2.509574e-01 -8.424149e-01 -4.768204e-01
    outer loop
      vertex  4.800000e+03 -6.888012e+03  8.922414e+03
      vertex  4.951295e+03 -6.971641e+03  8.990535e+03
      vertex  4.800000e+03 -6.953891e+03  9.038804e+03
    endloop
  endfacet
  facet normal -2.443023e-01 -8.590434e-01 -4.498454e-01
    outer loop
      vertex  4.800000e+03 -6.953891e+03  9.038804e+03
      vertex  4.951295e+03 -6.971641e+03  8.990535e+03
      vertex  4.952102e+03 -7.083461e+03  9.203634e+03
    endloop
  endfacet
  facet normal -2.278518e-01 -8.565401e-01 -4.630579e-01
    outer loop
      vertex  4.800000e+03 -6.953891e+03  9.038804e+03
      vertex  4.952102e+03 -7.083461e+03  9.203634e+03
      vertex  4.800000e+03 -7.017689e+03  9.156815e+03
    endloop
  endfacet
  facet normal -2.453291e-01 -8.707252e-01 -4.262058e-01
    outer loop
      vertex  4.800000e+03 -7.017689e+03  9.156815e+03
      vertex  4.952102e+03 -7.083461e+03  9.203634e+03
      vertex  4.952517e+03 -7.138469e+03  9.315773e+03
    endloop
  endfacet
  facet normal -2.202172e-01 -8.668286e-01 -4.473394e-01
    outer loop
      vertex  4.800000e+03 -7.017689e+03  9.156815e+03
      vertex  4.952517e+03 -7.138469e+03  9.315773e+03
      vertex  4.800000e+03 -7.079414e+03  9.276421e+03
    endloop
  endfacet
  facet normal -2.348603e-01 -8.806848e-01 -4.113815e-01
    outer loop
      vertex  4.800000e+03 -7.079414e+03  9.276421e+03
      vertex  4.952517e+03 -7.138469e+03  9.315773e+03
      vertex  4.952931e+03 -7.191792e+03  9.429692e+03
    endloop
  endfacet
  facet normal -2.116626e-01 -8.768308e-01 -4.317020e-01
    outer loop
      vertex  4.800000e+03 -7.079414e+03  9.276421e+03
      vertex  4.952931e+03 -7.191792e+03  9.429692e+03
      vertex  4.800000e+03 -7.139070e+03  9.397590e+03
    endloop
  endfacet
  facet normal -2.235545e-01 -8.901846e-01 -3.969819e-01
    outer loop
      vertex  4.800000e+03 -7.139070e+03  9.397590e+03
      vertex  4.952931e+03 -7.191792e+03  9.429692e+03
      vertex  4.953322e+03 -7.240655e+03  9.539040e+03
    endloop
  endfacet
  facet normal -2.035803e-01 -8.863431e-01 -4.158736e-01
    outer loop
      vertex  4.800000e+03 -7.139070e+03  9.397590e+03
      vertex  4.953322e+03 -7.240655e+03  9.539040e+03
      vertex  4.800000e+03 -7.197918e+03  9.523012e+03
    endloop
  endfacet
  facet normal -2.736699e-01 -8.070320e-01 -5.232630e-01
    outer loop
      vertex  4.800000e+03 -6.673451e+03  8.576523e+03
      vertex  4.949680e+03 -6.729104e+03  8.584074e+03
      vertex  4.800000e+03 -6.750018e+03  8.694612e+03
    endloop
  endfacet
  facet normal -2.613853e-01 -8.200619e-01 -5.090935e-01
    outer loop
      vertex  4.800000e+03 -6.750018e+03  8.694612e+03
      vertex  4.949680e+03 -6.729104e+03  8.584074e+03
      vertex  4.950488e+03 -6.853502e+03  8.784043e+03
    endloop
  endfacet
  facet normal -2.621442e-01 -8.203820e-01 -5.081869e-01
    outer loop
      vertex  4.800000e+03 -6.750018e+03  8.694612e+03
      vertex  4.950488e+03 -6.853502e+03  8.784043e+03
      vertex  4.800000e+03 -6.820054e+03  8.807674e+03
    endloop
  endfacet
  facet normal -2.614574e-01 -8.382311e-01 -4.785483e-01
    outer loop
      vertex  4.800000e+03 -6.820054e+03  8.807674e+03
      vertex  4.950488e+03 -6.853502e+03  8.784043e+03
      vertex  4.951295e+03 -6.971641e+03  8.990535e+03
    endloop
  endfacet
  facet normal -2.390089e-01 -8.354721e-01 -4.948345e-01
    outer loop
      vertex  4.800000e+03 -6.820054e+03  8.807674e+03
      vertex  4.951295e+03 -6.971641e+03  8.990535e+03
      vertex  4.800000e+03 -6.888012e+03  8.922414e+03
    endloop
  endfacet
  facet normal -2.816327e-01 -7.819784e-01 -5.560511e-01
    outer loop
      vertex  4.800000e+03 -6.513379e+03  8.346206e+03
      vertex  4.948872e+03 -6.598525e+03  8.390546e+03
      vertex  4.800000e+03 -6.594566e+03  8.460380e+03
    endloop
  endfacet
  facet normal -2.732381e-01 -7.979363e-01 -5.372509e-01
    outer loop
      vertex  4.800000e+03 -6.594566e+03  8.460380e+03
      vertex  4.948872e+03 -6.598525e+03  8.390546e+03
      vertex  4.949680e+03 -6.729104e+03  8.584074e+03
    endloop
  endfacet
  facet normal -2.689454e-01 -7.967532e-01 -5.411586e-01
    outer loop
      vertex  4.800000e+03 -6.594566e+03  8.460380e+03
      vertex  4.949680e+03 -6.729104e+03  8.584074e+03
      vertex  4.800000e+03 -6.673451e+03  8.576523e+03
    endloop
  endfacet
  facet normal -2.873877e-01 -7.243870e-01 -6.266353e-01
    outer loop
      vertex  4.800000e+03 -6.090688e+03  7.824369e+03
      vertex  4.947118e+03 -6.294874e+03  7.992934e+03
      vertex  4.800000e+03 -6.256231e+03  8.015735e+03
    endloop
  endfacet
  facet normal -2.888151e-01 -7.441504e-01 -6.023504e-01
    outer loop
      vertex  4.800000e+03 -6.256231e+03  8.015735e+03
      vertex  4.947118e+03 -6.294874e+03  7.992934e+03
      vertex  4.947590e+03 -6.379370e+03  8.097096e+03
    endloop
  endfacet
  facet normal -2.868129e-01 -7.431754e-01 -6.045069e-01
    outer loop
      vertex  4.800000e+03 -6.256231e+03  8.015735e+03
      vertex  4.947590e+03 -6.379370e+03  8.097096e+03
      vertex  4.800000e+03 -6.344185e+03  8.123864e+03
    endloop
  endfacet
  facet normal -2.869422e-01 -7.573742e-01 -5.865565e-01
    outer loop
      vertex  4.800000e+03 -6.344185e+03  8.123864e+03
      vertex  4.947590e+03 -6.379370e+03  8.097096e+03
      vertex  4.948063e+03 -6.461859e+03  8.203376e+03
    endloop
  endfacet
  facet normal -2.850860e-01 -7.564518e-01 -5.886481e-01
    outer loop
      vertex  4.800000e+03 -6.344185e+03  8.123864e+03
      vertex  4.948063e+03 -6.461859e+03  8.203376e+03
      vertex  4.800000e+03 -6.429910e+03  8.234027e+03
    endloop
  endfacet
  facet normal -2.840950e-01 -7.749286e-01 -5.646022e-01
    outer loop
      vertex  4.800000e+03 -6.429910e+03  8.234027e+03
      vertex  4.948063e+03 -6.461859e+03  8.203376e+03
      vertex  4.948872e+03 -6.598525e+03  8.390546e+03
    endloop
  endfacet
  facet normal -2.705774e-01 -7.723516e-01 -5.746832e-01
    outer loop
      vertex  4.800000e+03 -6.429910e+03  8.234027e+03
      vertex  4.948872e+03 -6.598525e+03  8.390546e+03
      vertex  4.800000e+03 -6.513379e+03  8.346206e+03
    endloop
  endfacet
  facet normal -1.944111e-01 -7.898305e-01 -5.816976e-01
    outer loop
      vertex  5.847909e+03 -6.604141e+03  8.040427e+03
      vertex  6.000000e+03 -6.711314e+03  8.135116e+03
      vertex  5.849839e+03 -6.708128e+03  8.180977e+03
    endloop
  endfacet
  facet normal -1.871849e-01 -8.093636e-01 -5.566798e-01
    outer loop
      vertex  5.849839e+03 -6.708128e+03  8.180977e+03
      vertex  6.000000e+03 -6.711314e+03  8.135116e+03
      vertex  6.000000e+03 -6.853726e+03  8.342171e+03
    endloop
  endfacet
  facet normal -1.913813e-01 -8.104128e-01 -5.537184e-01
    outer loop
      vertex  5.849839e+03 -6.708128e+03  8.180977e+03
      vertex  6.000000e+03 -6.853726e+03  8.342171e+03
      vertex  5.852320e+03 -6.836508e+03  8.368014e+03
    endloop
  endfacet
  facet normal -1.881245e-01 -8.332663e-01 -5.198812e-01
    outer loop
      vertex  5.852320e+03 -6.836508e+03  8.368014e+03
      vertex  6.000000e+03 -6.853726e+03  8.342171e+03
      vertex  6.000000e+03 -6.987605e+03  8.556753e+03
    endloop
  endfacet
  facet normal -1.860672e-01 -8.329037e-01 -5.212008e-01
    outer loop
      vertex  5.852320e+03 -6.836508e+03  8.368014e+03
      vertex  6.000000e+03 -6.987605e+03  8.556753e+03
      vertex  5.854801e+03 -6.958674e+03  8.562354e+03
    endloop
  endfacet
  facet normal -1.887306e-01 -8.529568e-01 -4.866677e-01
    outer loop
      vertex  5.854801e+03 -6.958674e+03  8.562354e+03
      vertex  6.000000e+03 -6.987605e+03  8.556753e+03
      vertex  5.857280e+03 -7.074381e+03  8.764187e+03
    endloop
  endfacet
  facet normal -1.866613e-01 -8.532890e-01 -4.868836e-01
    outer loop
      vertex  5.854801e+03 -6.958674e+03  8.562354e+03
      vertex  5.857280e+03 -7.074381e+03  8.764187e+03
      vertex  5.693722e+03 -7.007167e+03  8.709095e+03
    endloop
  endfacet
  facet normal -1.946479e-01 -7.223659e-01 -6.635509e-01
    outer loop
      vertex  5.841151e+03 -6.213516e+03  7.580976e+03
      vertex  6.000000e+03 -6.248817e+03  7.572809e+03
      vertex  5.842599e+03 -6.300555e+03  7.675305e+03
    endloop
  endfacet
  facet normal -1.868898e-01 -7.311795e-01 -6.560859e-01
    outer loop
      vertex  5.842599e+03 -6.300555e+03  7.675305e+03
      vertex  6.000000e+03 -6.248817e+03  7.572809e+03
      vertex  6.000000e+03 -6.402336e+03  7.743898e+03
    endloop
  endfacet
  facet normal -1.940907e-01 -7.367051e-01 -6.477611e-01
    outer loop
      vertex  5.842599e+03 -6.300555e+03  7.675305e+03
      vertex  6.000000e+03 -6.402336e+03  7.743898e+03
      vertex  5.844048e+03 -6.385822e+03  7.771846e+03
    endloop
  endfacet
  facet normal -1.921120e-01 -7.566896e-01 -6.249110e-01
    outer loop
      vertex  5.844048e+03 -6.385822e+03  7.771846e+03
      vertex  6.000000e+03 -6.402336e+03  7.743898e+03
      vertex  6.000000e+03 -6.560720e+03  7.935682e+03
    endloop
  endfacet
  facet normal -1.845912e-01 -7.545325e-01 -6.297672e-01
    outer loop
      vertex  5.844048e+03 -6.385822e+03  7.771846e+03
      vertex  6.000000e+03 -6.560720e+03  7.935682e+03
      vertex  5.845979e+03 -6.496665e+03  7.904082e+03
    endloop
  endfacet
  facet normal -1.832400e-01 -8.906356e-01 -4.161627e-01
    outer loop
      vertex  6.000000e+03 -7.215146e+03  8.979908e+03
      vertex  5.862237e+03 -7.285463e+03  9.191054e+03
      vertex  5.859759e+03 -7.183389e+03  8.973694e+03
    endloop
  endfacet
  facet normal -1.793582e-01 -8.912665e-01 -4.165032e-01
    outer loop
      vertex  5.859759e+03 -7.183389e+03  8.973694e+03
      vertex  5.862237e+03 -7.285463e+03  9.191054e+03
      vertex  5.699064e+03 -7.238832e+03  9.161535e+03
    endloop
  endfacet
  facet normal -1.816071e-01 -8.900742e-01 -4.180751e-01
    outer loop
      vertex  5.859759e+03 -7.183389e+03  8.973694e+03
      vertex  5.699064e+03 -7.238832e+03  9.161535e+03
      vertex  5.697729e+03 -7.183873e+03  9.045108e+03
    endloop
  endfacet
  facet normal -1.986811e-01 -7.360501e-01 -6.471136e-01
    outer loop
      vertex  5.842599e+03 -6.300555e+03  7.675305e+03
      vertex  5.844048e+03 -6.385822e+03  7.771846e+03
      vertex  5.681022e+03 -6.339541e+03  7.769256e+03
    endloop
  endfacet
  facet normal -2.034703e-01 -7.518060e-01 -6.272061e-01
    outer loop
      vertex  5.681022e+03 -6.339541e+03  7.769256e+03
      vertex  5.844048e+03 -6.385822e+03  7.771846e+03
      vertex  5.845979e+03 -6.496665e+03  7.904082e+03
    endloop
  endfacet
  facet normal -2.005752e-01 -7.507000e-01 -6.294593e-01
    outer loop
      vertex  5.681022e+03 -6.339541e+03  7.769256e+03
      vertex  5.845979e+03 -6.496665e+03  7.904082e+03
      vertex  5.683363e+03 -6.474004e+03  7.928874e+03
    endloop
  endfacet
  facet normal -1.996396e-01 -7.709077e-01 -6.048515e-01
    outer loop
      vertex  5.683363e+03 -6.474004e+03  7.928874e+03
      vertex  5.845979e+03 -6.496665e+03  7.904082e+03
      vertex  5.847909e+03 -6.604141e+03  8.040427e+03
    endloop
  endfacet
  facet normal -2.032226e-01 -7.725792e-01 -6.015164e-01
    outer loop
      vertex  5.683363e+03 -6.474004e+03  7.928874e+03
      vertex  5.847909e+03 -6.604141e+03  8.040427e+03
      vertex  5.685703e+03 -6.603508e+03  8.094416e+03
    endloop
  endfacet
  facet normal -2.013224e-01 -6.855457e-01 -6.996401e-01
    outer loop
      vertex  5.674795e+03 -5.959307e+03  7.372300e+03
      vertex  5.838253e+03 -6.034335e+03  7.398782e+03
      vertex  5.676340e+03 -6.056557e+03  7.467146e+03
    endloop
  endfacet
  facet normal -1.935884e-01 -7.010278e-01 -6.863553e-01
    outer loop
      vertex  5.676340e+03 -6.056557e+03  7.467146e+03
      vertex  5.838253e+03 -6.034335e+03  7.398782e+03
      vertex  5.841151e+03 -6.213516e+03  7.580976e+03
    endloop
  endfacet
  facet normal -2.013801e-01 -7.047782e-01 -6.802454e-01
    outer loop
      vertex  5.676340e+03 -6.056557e+03  7.467146e+03
      vertex  5.841151e+03 -6.213516e+03  7.580976e+03
      vertex  5.678682e+03 -6.200321e+03  7.615402e+03
    endloop
  endfacet
  facet normal -1.990847e-01 -7.217450e-01 -6.629098e-01
    outer loop
      vertex  5.678682e+03 -6.200321e+03  7.615402e+03
      vertex  5.841151e+03 -6.213516e+03  7.580976e+03
      vertex  5.842599e+03 -6.300555e+03  7.675305e+03
    endloop
  endfacet
  facet normal -2.053578e-01 -7.272415e-01 -6.549411e-01
    outer loop
      vertex  5.678682e+03 -6.200321e+03  7.615402e+03
      vertex  5.842599e+03 -6.300555e+03  7.675305e+03
      vertex  5.681022e+03 -6.339541e+03  7.769256e+03
    endloop
  endfacet
  facet normal -2.016882e-01 -8.411753e-01 -5.017431e-01
    outer loop
      vertex  5.546963e+03 -6.856348e+03  8.515240e+03
      vertex  5.693722e+03 -7.007167e+03  8.709095e+03
      vertex  5.549510e+03 -6.982331e+03  8.725428e+03
    endloop
  endfacet
  facet normal -2.011105e-01 -8.629803e-01 -4.634864e-01
    outer loop
      vertex  5.549510e+03 -6.982331e+03  8.725428e+03
      vertex  5.693722e+03 -7.007167e+03  8.709095e+03
      vertex  5.696394e+03 -7.126921e+03  8.930910e+03
    endloop
  endfacet
  facet normal -1.966640e-01 -8.624816e-01 -4.663140e-01
    outer loop
      vertex  5.549510e+03 -6.982331e+03  8.725428e+03
      vertex  5.696394e+03 -7.126921e+03  8.930910e+03
      vertex  5.552056e+03 -7.100987e+03  8.943817e+03
    endloop
  endfacet
  facet normal -1.967721e-01 -8.783103e-01 -4.357199e-01
    outer loop
      vertex  5.552056e+03 -7.100987e+03  8.943817e+03
      vertex  5.696394e+03 -7.126921e+03  8.930910e+03
      vertex  5.697729e+03 -7.183873e+03  9.045108e+03
    endloop
  endfacet
  facet normal -1.938020e-01 -8.772676e-01 -4.391383e-01
    outer loop
      vertex  5.552056e+03 -7.100987e+03  8.943817e+03
      vertex  5.697729e+03 -7.183873e+03  9.045108e+03
      vertex  5.553328e+03 -7.157498e+03  9.056146e+03
    endloop
  endfacet
  facet normal -1.940610e-01 -8.879752e-01 -4.169416e-01
    outer loop
      vertex  5.553328e+03 -7.157498e+03  9.056146e+03
      vertex  5.697729e+03 -7.183873e+03  9.045108e+03
      vertex  5.699064e+03 -7.238832e+03  9.161535e+03
    endloop
  endfacet
  facet normal -1.905337e-01 -8.868477e-01 -4.209491e-01
    outer loop
      vertex  5.553328e+03 -7.157498e+03  9.056146e+03
      vertex  5.699064e+03 -7.238832e+03  9.161535e+03
      vertex  5.554601e+03 -7.212094e+03  9.170593e+03
    endloop
  endfacet
  facet normal -1.910829e-01 -8.986607e-01 -3.948369e-01
    outer loop
      vertex  5.554601e+03 -7.212094e+03  9.170593e+03
      vertex  5.699064e+03 -7.238832e+03  9.161535e+03
      vertex  5.700843e+03 -7.308955e+03  9.320277e+03
    endloop
  endfacet
  facet normal -1.855065e-01 -8.976963e-01 -3.996610e-01
    outer loop
      vertex  5.554601e+03 -7.212094e+03  9.170593e+03
      vertex  5.700843e+03 -7.308955e+03  9.320277e+03
      vertex  5.556296e+03 -7.281865e+03  9.326522e+03
    endloop
  endfacet
  facet normal -1.865663e-01 -9.102985e-01 -3.695262e-01
    outer loop
      vertex  5.556296e+03 -7.281865e+03  9.326522e+03
      vertex  5.700843e+03 -7.308955e+03  9.320277e+03
      vertex  5.702622e+03 -7.375408e+03  9.483080e+03
    endloop
  endfacet
  facet normal -1.798904e-01 -9.093269e-01 -3.751853e-01
    outer loop
      vertex  5.556296e+03 -7.281865e+03  9.326522e+03
      vertex  5.702622e+03 -7.375408e+03  9.483080e+03
      vertex  5.557992e+03 -7.348127e+03  9.486308e+03
    endloop
  endfacet
  facet normal -2.043232e-01 -8.415524e-01 -5.000416e-01
    outer loop
      vertex  5.693722e+03 -7.007167e+03  8.709095e+03
      vertex  5.546963e+03 -6.856348e+03  8.515240e+03
      vertex  5.691050e+03 -6.879830e+03  8.495884e+03
    endloop
  endfacet
  facet normal -2.054591e-01 -8.186560e-01 -5.362731e-01
    outer loop
      vertex  5.691050e+03 -6.879830e+03  8.495884e+03
      vertex  5.546963e+03 -6.856348e+03  8.515240e+03
      vertex  5.544416e+03 -6.723273e+03  8.313068e+03
    endloop
  endfacet
  facet normal -2.064897e-01 -8.188366e-01 -5.356010e-01
    outer loop
      vertex  5.691050e+03 -6.879830e+03  8.495884e+03
      vertex  5.544416e+03 -6.723273e+03  8.313068e+03
      vertex  5.688377e+03 -6.745184e+03  8.291064e+03
    endloop
  endfacet
  facet normal -2.080846e-01 -7.950801e-01 -5.696915e-01
    outer loop
      vertex  5.688377e+03 -6.745184e+03  8.291064e+03
      vertex  5.544416e+03 -6.723273e+03  8.313068e+03
      vertex  5.541868e+03 -6.583351e+03  8.118719e+03
    endloop
  endfacet
  facet normal -2.077125e-01 -7.950028e-01 -5.699352e-01
    outer loop
      vertex  5.688377e+03 -6.745184e+03  8.291064e+03
      vertex  5.541868e+03 -6.583351e+03  8.118719e+03
      vertex  5.685703e+03 -6.603508e+03  8.094416e+03
    endloop
  endfacet
  facet normal -2.095685e-01 -7.721781e-01 -5.998517e-01
    outer loop
      vertex  5.685703e+03 -6.603508e+03  8.094416e+03
      vertex  5.541868e+03 -6.583351e+03  8.118719e+03
      vertex  5.539638e+03 -6.455503e+03  7.954922e+03
    endloop
  endfacet
  facet normal -2.082408e-01 -7.717825e-01 -6.008222e-01
    outer loop
      vertex  5.685703e+03 -6.603508e+03  8.094416e+03
      vertex  5.539638e+03 -6.455503e+03  7.954922e+03
      vertex  5.683363e+03 -6.474004e+03  7.928874e+03
    endloop
  endfacet
  facet normal -2.101862e-01 -7.502593e-01 -6.268435e-01
    outer loop
      vertex  5.683363e+03 -6.474004e+03  7.928874e+03
      vertex  5.539638e+03 -6.455503e+03  7.954922e+03
      vertex  5.537407e+03 -6.322786e+03  7.796823e+03
    endloop
  endfacet
  facet normal -2.080629e-01 -7.495587e-01 -6.283880e-01
    outer loop
      vertex  5.683363e+03 -6.474004e+03  7.928874e+03
      vertex  5.537407e+03 -6.322786e+03  7.796823e+03
      vertex  5.681022e+03 -6.339541e+03  7.769256e+03
    endloop
  endfacet
  facet normal -2.101928e-01 -7.279472e-01 -6.526192e-01
    outer loop
      vertex  5.681022e+03 -6.339541e+03  7.769256e+03
      vertex  5.537407e+03 -6.322786e+03  7.796823e+03
      vertex  5.535176e+03 -6.185384e+03  7.644280e+03
    endloop
  endfacet
  facet normal -2.073984e-01 -7.269379e-01 -6.546353e-01
    outer loop
      vertex  5.681022e+03 -6.339541e+03  7.769256e+03
      vertex  5.535176e+03 -6.185384e+03  7.644280e+03
      vertex  5.678682e+03 -6.200321e+03  7.615402e+03
    endloop
  endfacet
  facet normal -2.096764e-01 -7.053834e-01 -6.771041e-01
    outer loop
      vertex  5.678682e+03 -6.200321e+03  7.615402e+03
      vertex  5.535176e+03 -6.185384e+03  7.644280e+03
      vertex  5.532945e+03 -6.043487e+03  7.497148e+03
    endloop
  endfacet
  facet normal -2.063365e-01 -7.040762e-01 -6.794865e-01
    outer loop
      vertex  5.678682e+03 -6.200321e+03  7.615402e+03
      vertex  5.532945e+03 -6.043487e+03  7.497148e+03
      vertex  5.676340e+03 -6.056557e+03  7.467146e+03
    endloop
  endfacet
  facet normal -2.083016e-01 -6.867178e-01 -6.964403e-01
    outer loop
      vertex  5.676340e+03 -6.056557e+03  7.467146e+03
      vertex  5.532945e+03 -6.043487e+03  7.497148e+03
      vertex  5.531489e+03 -5.948557e+03  7.403978e+03
    endloop
  endfacet
  facet normal -2.058783e-01 -6.849212e-01 -6.989256e-01
    outer loop
      vertex  5.676340e+03 -6.056557e+03  7.467146e+03
      vertex  5.531489e+03 -5.948557e+03  7.403978e+03
      vertex  5.674795e+03 -5.959307e+03  7.372300e+03
    endloop
  endfacet
  facet normal -2.107415e-01 -8.383523e-01 -5.027459e-01
    outer loop
      vertex  5.403380e+03 -6.830570e+03  8.533614e+03
      vertex  5.549510e+03 -6.982331e+03  8.725428e+03
      vertex  5.405700e+03 -6.955503e+03  8.740974e+03
    endloop
  endfacet
  facet normal -2.106754e-01 -8.599886e-01 -4.647961e-01
    outer loop
      vertex  5.405700e+03 -6.955503e+03  8.740974e+03
      vertex  5.549510e+03 -6.982331e+03  8.725428e+03
      vertex  5.552056e+03 -7.100987e+03  8.943817e+03
    endloop
  endfacet
  facet normal -2.048717e-01 -8.593621e-01 -4.685342e-01
    outer loop
      vertex  5.405700e+03 -6.955503e+03  8.740974e+03
      vertex  5.552056e+03 -7.100987e+03  8.943817e+03
      vertex  5.408020e+03 -7.073365e+03  8.956136e+03
    endloop
  endfacet
  facet normal -2.053014e-01 -8.752276e-01 -4.379817e-01
    outer loop
      vertex  5.408020e+03 -7.073365e+03  8.956136e+03
      vertex  5.552056e+03 -7.100987e+03  8.943817e+03
      vertex  5.553328e+03 -7.157498e+03  9.056146e+03
    endloop
  endfacet
  facet normal -2.015734e-01 -8.739217e-01 -4.422997e-01
    outer loop
      vertex  5.408020e+03 -7.073365e+03  8.956136e+03
      vertex  5.553328e+03 -7.157498e+03  9.056146e+03
      vertex  5.409179e+03 -7.129586e+03  9.066691e+03
    endloop
  endfacet
  facet normal -2.020412e-01 -8.848181e-01 -4.198529e-01
    outer loop
      vertex  5.409179e+03 -7.129586e+03  9.066691e+03
      vertex  5.553328e+03 -7.157498e+03  9.056146e+03
      vertex  5.554601e+03 -7.212094e+03  9.170593e+03
    endloop
  endfacet
  facet normal -1.977314e-01 -8.834355e-01 -4.247871e-01
    outer loop
      vertex  5.409179e+03 -7.129586e+03  9.066691e+03
      vertex  5.554601e+03 -7.212094e+03  9.170593e+03
      vertex  5.410338e+03 -7.183971e+03  9.179258e+03
    endloop
  endfacet
  facet normal -1.984910e-01 -8.954298e-01 -3.985057e-01
    outer loop
      vertex  5.410338e+03 -7.183971e+03  9.179258e+03
      vertex  5.554601e+03 -7.212094e+03  9.170593e+03
      vertex  5.556296e+03 -7.281865e+03  9.326522e+03
    endloop
  endfacet
  facet normal -1.918220e-01 -8.942661e-01 -4.043419e-01
    outer loop
      vertex  5.410338e+03 -7.183971e+03  9.179258e+03
      vertex  5.556296e+03 -7.281865e+03  9.326522e+03
      vertex  5.411883e+03 -7.253593e+03  9.332505e+03
    endloop
  endfacet
  facet normal -1.930751e-01 -9.070644e-01 -3.741072e-01
    outer loop
      vertex  5.411883e+03 -7.253593e+03  9.332505e+03
      vertex  5.556296e+03 -7.281865e+03  9.326522e+03
      vertex  5.557992e+03 -7.348127e+03  9.486308e+03
    endloop
  endfacet
  facet normal -1.852485e-01 -9.058998e-01 -3.808263e-01
    outer loop
      vertex  5.411883e+03 -7.253593e+03  9.332505e+03
      vertex  5.557992e+03 -7.348127e+03  9.486308e+03
      vertex  5.413428e+03 -7.319867e+03  9.489404e+03
    endloop
  endfacet
  facet normal -2.146182e-01 -8.388837e-01 -5.002130e-01
    outer loop
      vertex  5.549510e+03 -6.982331e+03  8.725428e+03
      vertex  5.403380e+03 -6.830570e+03  8.533614e+03
      vertex  5.546963e+03 -6.856348e+03  8.515240e+03
    endloop
  endfacet
  facet normal -2.151525e-01 -8.162240e-01 -5.361788e-01
    outer loop
      vertex  5.546963e+03 -6.856348e+03  8.515240e+03
      vertex  5.403380e+03 -6.830570e+03  8.533614e+03
      vertex  5.401060e+03 -6.698762e+03  8.333894e+03
    endloop
  endfacet
  facet normal -2.173050e-01 -8.165843e-01 -5.347602e-01
    outer loop
      vertex  5.546963e+03 -6.856348e+03  8.515240e+03
      vertex  5.401060e+03 -6.698762e+03  8.333894e+03
      vertex  5.544416e+03 -6.723273e+03  8.313068e+03
    endloop
  endfacet
  facet normal -2.182138e-01 -7.931182e-01 -5.686354e-01
    outer loop
      vertex  5.544416e+03 -6.723273e+03  8.313068e+03
      vertex  5.401060e+03 -6.698762e+03  8.333894e+03
      vertex  5.398738e+03 -6.560288e+03  8.141645e+03
    endloop
  endfacet
  facet normal -2.188322e-01 -7.932409e-01 -5.682264e-01
    outer loop
      vertex  5.544416e+03 -6.723273e+03  8.313068e+03
      vertex  5.398738e+03 -6.560288e+03  8.141645e+03
      vertex  5.541868e+03 -6.583351e+03  8.118719e+03
    endloop
  endfacet
  facet normal -2.199733e-01 -7.706974e-01 -5.980278e-01
    outer loop
      vertex  5.541868e+03 -6.583351e+03  8.118719e+03
      vertex  5.398738e+03 -6.560288e+03  8.141645e+03
      vertex  5.396706e+03 -6.433830e+03  7.979422e+03
    endloop
  endfacet
  facet normal -2.194159e-01 -7.705382e-01 -5.984376e-01
    outer loop
      vertex  5.541868e+03 -6.583351e+03  8.118719e+03
      vertex  5.396706e+03 -6.433830e+03  7.979422e+03
      vertex  5.539638e+03 -6.455503e+03  7.954922e+03
    endloop
  endfacet
  facet normal -2.206464e-01 -7.492623e-01 -6.244367e-01
    outer loop
      vertex  5.539638e+03 -6.455503e+03  7.954922e+03
      vertex  5.396706e+03 -6.433830e+03  7.979422e+03
      vertex  5.394674e+03 -6.302594e+03  7.822670e+03
    endloop
  endfacet
  facet normal -2.191979e-01 -7.488046e-01 -6.254951e-01
    outer loop
      vertex  5.539638e+03 -6.455503e+03  7.954922e+03
      vertex  5.394674e+03 -6.302594e+03  7.822670e+03
      vertex  5.537407e+03 -6.322786e+03  7.796823e+03
    endloop
  endfacet
  facet normal -2.205685e-01 -7.274402e-01 -6.497541e-01
    outer loop
      vertex  5.537407e+03 -6.322786e+03  7.796823e+03
      vertex  5.394674e+03 -6.302594e+03  7.822670e+03
      vertex  5.392642e+03 -6.166744e+03  7.671267e+03
    endloop
  endfacet
  facet normal -2.183564e-01 -7.266758e-01 -6.513546e-01
    outer loop
      vertex  5.537407e+03 -6.322786e+03  7.796823e+03
      vertex  5.392642e+03 -6.166744e+03  7.671267e+03
      vertex  5.535176e+03 -6.185384e+03  7.644280e+03
    endloop
  endfacet
  facet normal -2.198374e-01 -7.053543e-01 -6.739043e-01
    outer loop
      vertex  5.535176e+03 -6.185384e+03  7.644280e+03
      vertex  5.392642e+03 -6.166744e+03  7.671267e+03
      vertex  5.390609e+03 -6.026448e+03  7.525086e+03
    endloop
  endfacet
  facet normal -2.169898e-01 -7.042893e-01 -6.759380e-01
    outer loop
      vertex  5.535176e+03 -6.185384e+03  7.644280e+03
      vertex  5.390609e+03 -6.026448e+03  7.525086e+03
      vertex  5.532945e+03 -6.043487e+03  7.497148e+03
    endloop
  endfacet
  facet normal -2.182951e-01 -6.868969e-01 -6.931953e-01
    outer loop
      vertex  5.532945e+03 -6.043487e+03  7.497148e+03
      vertex  5.390609e+03 -6.026448e+03  7.525086e+03
      vertex  5.389253e+03 -5.930534e+03  7.430471e+03
    endloop
  endfacet
  facet normal -2.163432e-01 -6.855567e-01 -6.951314e-01
    outer loop
      vertex  5.532945e+03 -6.043487e+03  7.497148e+03
      vertex  5.389253e+03 -5.930534e+03  7.430471e+03
      vertex  5.531489e+03 -5.948557e+03  7.403978e+03
    endloop
  endfacet
  facet normal -2.011043e-01 -8.961279e-01 -3.956158e-01
    outer loop
      vertex  5.258295e+03 -7.205483e+03  9.301602e+03
      vertex  5.411883e+03 -7.253593e+03  9.332505e+03
      vertex  5.259281e+03 -7.256734e+03  9.417191e+03
    endloop
  endfacet
  facet normal -1.923915e-01 -9.046596e-01 -3.802322e-01
    outer loop
      vertex  5.259281e+03 -7.256734e+03  9.417191e+03
      vertex  5.411883e+03 -7.253593e+03  9.332505e+03
      vertex  5.413428e+03 -7.319867e+03  9.489404e+03
    endloop
  endfacet
  facet normal -1.931117e-01 -9.050193e-01 -3.790093e-01
    outer loop
      vertex  5.259281e+03 -7.256734e+03  9.417191e+03
      vertex  5.413428e+03 -7.319867e+03  9.489404e+03
      vertex  5.260250e+03 -7.305286e+03  9.532634e+03
    endloop
  endfacet
  facet normal -2.059980e-01 -8.819345e-01 -4.239768e-01
    outer loop
      vertex  5.409179e+03 -7.129586e+03  9.066691e+03
      vertex  5.410338e+03 -7.183971e+03  9.179258e+03
      vertex  5.257309e+03 -7.152417e+03  9.187973e+03
    endloop
  endfacet
  facet normal -2.067841e-01 -8.915521e-01 -4.029580e-01
    outer loop
      vertex  5.257309e+03 -7.152417e+03  9.187973e+03
      vertex  5.410338e+03 -7.183971e+03  9.179258e+03
      vertex  5.411883e+03 -7.253593e+03  9.332505e+03
    endloop
  endfacet
  facet normal -1.953345e-01 -8.892589e-01 -4.135979e-01
    outer loop
      vertex  5.257309e+03 -7.152417e+03  9.187973e+03
      vertex  5.411883e+03 -7.253593e+03  9.332505e+03
      vertex  5.258295e+03 -7.205483e+03  9.301602e+03
    endloop
  endfacet
  facet normal -2.347376e-01 -7.149661e-01 -6.585755e-01
    outer loop
      vertex  5.241807e+03 -6.096309e+03  7.648563e+03
      vertex  5.392642e+03 -6.166744e+03  7.671267e+03
      vertex  5.242950e+03 -6.187495e+03  7.747149e+03
    endloop
  endfacet
  facet normal -2.280935e-01 -7.262009e-01 -6.485412e-01
    outer loop
      vertex  5.242950e+03 -6.187495e+03  7.747149e+03
      vertex  5.392642e+03 -6.166744e+03  7.671267e+03
      vertex  5.394674e+03 -6.302594e+03  7.822670e+03
    endloop
  endfacet
  facet normal -2.365076e-01 -7.314236e-01 -6.395966e-01
    outer loop
      vertex  5.242950e+03 -6.187495e+03  7.747149e+03
      vertex  5.394674e+03 -6.302594e+03  7.822670e+03
      vertex  5.244474e+03 -6.305997e+03  7.882102e+03
    endloop
  endfacet
  facet normal -2.295877e-01 -7.477351e-01 -6.230422e-01
    outer loop
      vertex  5.244474e+03 -6.305997e+03  7.882102e+03
      vertex  5.394674e+03 -6.302594e+03  7.822670e+03
      vertex  5.396706e+03 -6.433830e+03  7.979422e+03
    endloop
  endfacet
  facet normal -2.353463e-01 -7.504521e-01 -6.176032e-01
    outer loop
      vertex  5.244474e+03 -6.305997e+03  7.882102e+03
      vertex  5.396706e+03 -6.433830e+03  7.979422e+03
      vertex  5.245999e+03 -6.420887e+03  8.021124e+03
    endloop
  endfacet
  facet normal -2.310409e-01 -7.687439e-01 -5.963663e-01
    outer loop
      vertex  5.245999e+03 -6.420887e+03  8.021124e+03
      vertex  5.396706e+03 -6.433830e+03  7.979422e+03
      vertex  5.398738e+03 -6.560288e+03  8.141645e+03
    endloop
  endfacet
  facet normal -2.326688e-01 -7.693280e-01 -5.949788e-01
    outer loop
      vertex  5.245999e+03 -6.420887e+03  8.021124e+03
      vertex  5.398738e+03 -6.560288e+03  8.141645e+03
      vertex  5.247522e+03 -6.532066e+03  8.164286e+03
    endloop
  endfacet
  facet normal -2.323800e-01 -7.905409e-01 -5.666080e-01
    outer loop
      vertex  5.247522e+03 -6.532066e+03  8.164286e+03
      vertex  5.398738e+03 -6.560288e+03  8.141645e+03
      vertex  5.401060e+03 -6.698762e+03  8.333894e+03
    endloop
  endfacet
  facet normal -2.303941e-01 -7.901253e-01 -5.679970e-01
    outer loop
      vertex  5.247522e+03 -6.532066e+03  8.164286e+03
      vertex  5.401060e+03 -6.698762e+03  8.333894e+03
      vertex  5.249481e+03 -6.669410e+03  8.354547e+03
    endloop
  endfacet
  facet normal -2.302928e-01 -8.134176e-01 -5.341508e-01
    outer loop
      vertex  5.249481e+03 -6.669410e+03  8.354547e+03
      vertex  5.401060e+03 -6.698762e+03  8.333894e+03
      vertex  5.403380e+03 -6.830570e+03  8.533614e+03
    endloop
  endfacet
  facet normal -2.266466e-01 -8.127652e-01 -5.366973e-01
    outer loop
      vertex  5.249481e+03 -6.669410e+03  8.354547e+03
      vertex  5.403380e+03 -6.830570e+03  8.533614e+03
      vertex  5.251439e+03 -6.800280e+03  8.551908e+03
    endloop
  endfacet
  facet normal -2.268200e-01 -8.353436e-01 -5.007533e-01
    outer loop
      vertex  5.251439e+03 -6.800280e+03  8.551908e+03
      vertex  5.403380e+03 -6.830570e+03  8.533614e+03
      vertex  5.405700e+03 -6.955503e+03  8.740974e+03
    endloop
  endfacet
  facet normal -2.213082e-01 -8.345216e-01 -5.045755e-01
    outer loop
      vertex  5.251439e+03 -6.800280e+03  8.551908e+03
      vertex  5.405700e+03 -6.955503e+03  8.740974e+03
      vertex  5.253396e+03 -6.924507e+03  8.756510e+03
    endloop
  endfacet
  facet normal -2.218451e-01 -8.561879e-01 -4.666124e-01
    outer loop
      vertex  5.253396e+03 -6.924507e+03  8.756510e+03
      vertex  5.405700e+03 -6.955503e+03  8.740974e+03
      vertex  5.408020e+03 -7.073365e+03  8.956136e+03
    endloop
  endfacet
  facet normal -2.142561e-01 -8.552727e-01 -4.718082e-01
    outer loop
      vertex  5.253396e+03 -6.924507e+03  8.756510e+03
      vertex  5.408020e+03 -7.073365e+03  8.956136e+03
      vertex  5.255353e+03 -7.041934e+03  8.968486e+03
    endloop
  endfacet
  facet normal -2.150777e-01 -8.714147e-01 -4.408832e-01
    outer loop
      vertex  5.255353e+03 -7.041934e+03  8.968486e+03
      vertex  5.408020e+03 -7.073365e+03  8.956136e+03
      vertex  5.409179e+03 -7.129586e+03  9.066691e+03
    endloop
  endfacet
  facet normal -2.180186e-01 -8.725112e-01 -4.372552e-01
    outer loop
      vertex  5.255353e+03 -7.041934e+03  8.968486e+03
      vertex  5.409179e+03 -7.129586e+03  9.066691e+03
      vertex  5.257309e+03 -7.152417e+03  9.187973e+03
    endloop
  endfacet
  facet normal -2.275628e-01 -7.041285e-01 -6.726204e-01
    outer loop
      vertex  5.392642e+03 -6.166744e+03  7.671267e+03
      vertex  5.241807e+03 -6.096309e+03  7.648563e+03
      vertex  5.390609e+03 -6.026448e+03  7.525086e+03
    endloop
  endfacet
  facet normal -2.307094e-01 -7.011061e-01 -6.747025e-01
    outer loop
      vertex  5.390609e+03 -6.026448e+03  7.525086e+03
      vertex  5.241807e+03 -6.096309e+03  7.648563e+03
      vertex  5.240663e+03 -6.003193e+03  7.552194e+03
    endloop
  endfacet
  facet normal -2.661768e-01 -6.947728e-01 -6.681620e-01
    outer loop
      vertex  5.241807e+03 -6.096309e+03  7.648563e+03
      vertex  5.093863e+03 -6.156896e+03  7.770500e+03
      vertex  5.240663e+03 -6.003193e+03  7.552194e+03
    endloop
  endfacet
  facet normal -2.475760e-01 -7.059829e-01 -6.635466e-01
    outer loop
      vertex  5.240663e+03 -6.003193e+03  7.552194e+03
      vertex  5.093863e+03 -6.156896e+03  7.770500e+03
      vertex  5.092159e+03 -5.973789e+03  7.576318e+03
    endloop
  endfacet
  facet normal -2.884627e-01 -7.245745e-01 -6.259242e-01
    outer loop
      vertex  4.800000e+03 -6.090688e+03  7.824369e+03
      vertex  4.946173e+03 -6.119967e+03  7.790897e+03
      vertex  4.947118e+03 -6.294874e+03  7.992934e+03
    endloop
  endfacet
  facet normal -2.691787e-01 -7.287632e-01 -6.296406e-01
    outer loop
      vertex  4.947118e+03 -6.294874e+03  7.992934e+03
      vertex  4.946173e+03 -6.119967e+03  7.790897e+03
      vertex  5.093863e+03 -6.156896e+03  7.770500e+03
    endloop
  endfacet
  facet normal -2.834235e-01 -7.199188e-01 -6.335520e-01
    outer loop
      vertex  4.947118e+03 -6.294874e+03  7.992934e+03
      vertex  5.093863e+03 -6.156896e+03  7.770500e+03
      vertex  5.094730e+03 -6.247174e+03  7.872697e+03
    endloop
  endfacet
  facet normal -2.494039e-01 -7.268242e-01 -6.399407e-01
    outer loop
      vertex  5.094730e+03 -6.247174e+03  7.872697e+03
      vertex  5.093863e+03 -6.156896e+03  7.770500e+03
      vertex  5.242950e+03 -6.187495e+03  7.747149e+03
    endloop
  endfacet
  facet normal -2.465433e-01 -7.296025e-01 -6.378843e-01
    outer loop
      vertex  5.094730e+03 -6.247174e+03  7.872697e+03
      vertex  5.242950e+03 -6.187495e+03  7.747149e+03
      vertex  5.244474e+03 -6.305997e+03  7.882102e+03
    endloop
  endfacet
  facet normal -2.671360e-01 -7.373340e-01 -6.204651e-01
    outer loop
      vertex  5.094730e+03 -6.247174e+03  7.872697e+03
      vertex  5.095597e+03 -6.335392e+03  7.977158e+03
      vertex  4.947118e+03 -6.294874e+03  7.992934e+03
    endloop
  endfacet
  facet normal -2.689367e-01 -7.504414e-01 -6.037474e-01
    outer loop
      vertex  4.947118e+03 -6.294874e+03  7.992934e+03
      vertex  5.095597e+03 -6.335392e+03  7.977158e+03
      vertex  5.096433e+03 -6.418410e+03  8.079975e+03
    endloop
  endfacet
  facet normal -2.662625e-01 -7.491605e-01 -6.065170e-01
    outer loop
      vertex  4.947118e+03 -6.294874e+03  7.992934e+03
      vertex  5.096433e+03 -6.418410e+03  8.079975e+03
      vertex  4.947590e+03 -6.379370e+03  8.097096e+03
    endloop
  endfacet
  facet normal -2.678679e-01 -7.636442e-01 -5.874474e-01
    outer loop
      vertex  4.947590e+03 -6.379370e+03  8.097096e+03
      vertex  5.096433e+03 -6.418410e+03  8.079975e+03
      vertex  5.097268e+03 -6.499448e+03  8.184938e+03
    endloop
  endfacet
  facet normal -2.650122e-01 -7.623017e-01 -5.904784e-01
    outer loop
      vertex  4.947590e+03 -6.379370e+03  8.097096e+03
      vertex  5.097268e+03 -6.499448e+03  8.184938e+03
      vertex  4.948063e+03 -6.461859e+03  8.203376e+03
    endloop
  endfacet
  facet normal -2.665697e-01 -7.812744e-01 -5.644033e-01
    outer loop
      vertex  4.948063e+03 -6.461859e+03  8.203376e+03
      vertex  5.097268e+03 -6.499448e+03  8.184938e+03
      vertex  5.098727e+03 -6.636162e+03  8.373495e+03
    endloop
  endfacet
  facet normal -2.606548e-01 -7.802398e-01 -5.685816e-01
    outer loop
      vertex  4.948063e+03 -6.461859e+03  8.203376e+03
      vertex  5.098727e+03 -6.636162e+03  8.373495e+03
      vertex  4.948872e+03 -6.598525e+03  8.390546e+03
    endloop
  endfacet
  facet normal -2.625762e-01 -8.032975e-01 -5.345716e-01
    outer loop
      vertex  4.948872e+03 -6.598525e+03  8.390546e+03
      vertex  5.098727e+03 -6.636162e+03  8.373495e+03
      vertex  5.100185e+03 -6.766596e+03  8.568782e+03
    endloop
  endfacet
  facet normal -2.546919e-01 -8.021080e-01 -5.401431e-01
    outer loop
      vertex  4.948872e+03 -6.598525e+03  8.390546e+03
      vertex  5.100185e+03 -6.766596e+03  8.568782e+03
      vertex  4.949680e+03 -6.729104e+03  8.584074e+03
    endloop
  endfacet
  facet normal -2.566398e-01 -8.246195e-01 -5.041218e-01
    outer loop
      vertex  4.949680e+03 -6.729104e+03  8.584074e+03
      vertex  5.100185e+03 -6.766596e+03  8.568782e+03
      vertex  5.101642e+03 -6.890618e+03  8.770909e+03
    endloop
  endfacet
  facet normal -2.465850e-01 -8.233353e-01 -5.111896e-01
    outer loop
      vertex  4.949680e+03 -6.729104e+03  8.584074e+03
      vertex  5.101642e+03 -6.890618e+03  8.770909e+03
      vertex  4.950488e+03 -6.853502e+03  8.784043e+03
    endloop
  endfacet
  facet normal -2.486380e-01 -8.451398e-01 -4.731996e-01
    outer loop
      vertex  4.950488e+03 -6.853502e+03  8.784043e+03
      vertex  5.101642e+03 -6.890618e+03  8.770909e+03
      vertex  5.103098e+03 -7.008109e+03  8.979985e+03
    endloop
  endfacet
  facet normal -2.362017e-01 -8.438210e-01 -4.818452e-01
    outer loop
      vertex  4.950488e+03 -6.853502e+03  8.784043e+03
      vertex  5.103098e+03 -7.008109e+03  8.979985e+03
      vertex  4.951295e+03 -6.971641e+03  8.990535e+03
    endloop
  endfacet
  facet normal -2.384602e-01 -8.647631e-01 -4.419518e-01
    outer loop
      vertex  4.951295e+03 -6.971641e+03  8.990535e+03
      vertex  5.103098e+03 -7.008109e+03  8.979985e+03
      vertex  5.104554e+03 -7.118970e+03  9.196120e+03
    endloop
  endfacet
  facet normal -2.234045e-01 -8.634620e-01 -4.522431e-01
    outer loop
      vertex  4.951295e+03 -6.971641e+03  8.990535e+03
      vertex  5.104554e+03 -7.118970e+03  9.196120e+03
      vertex  4.952102e+03 -7.083461e+03  9.203634e+03
    endloop
  endfacet
  facet normal -2.255296e-01 -8.796908e-01 -4.186651e-01
    outer loop
      vertex  4.952102e+03 -7.083461e+03  9.203634e+03
      vertex  5.104554e+03 -7.118970e+03  9.196120e+03
      vertex  5.105295e+03 -7.172861e+03  9.308956e+03
    endloop
  endfacet
  facet normal -2.165409e-01 -8.768184e-01 -4.293011e-01
    outer loop
      vertex  4.952102e+03 -7.083461e+03  9.203634e+03
      vertex  5.105295e+03 -7.172861e+03  9.308956e+03
      vertex  4.952517e+03 -7.138469e+03  9.315773e+03
    endloop
  endfacet
  facet normal -2.180917e-01 -8.889874e-01 -4.026629e-01
    outer loop
      vertex  4.952517e+03 -7.138469e+03  9.315773e+03
      vertex  5.105295e+03 -7.172861e+03  9.308956e+03
      vertex  5.106036e+03 -7.225001e+03  9.423667e+03
    endloop
  endfacet
  facet normal -2.084830e-01 -8.860794e-01 -4.140025e-01
    outer loop
      vertex  4.952517e+03 -7.138469e+03  9.315773e+03
      vertex  5.106036e+03 -7.225001e+03  9.423667e+03
      vertex  4.952931e+03 -7.191792e+03  9.429692e+03
    endloop
  endfacet
  facet normal -2.099751e-01 -8.978610e-01 -3.869832e-01
    outer loop
      vertex  4.952931e+03 -7.191792e+03  9.429692e+03
      vertex  5.106036e+03 -7.225001e+03  9.423667e+03
      vertex  5.106750e+03 -7.273563e+03  9.535950e+03
    endloop
  endfacet
  facet normal -1.999624e-01 -8.948206e-01 -3.991379e-01
    outer loop
      vertex  4.952931e+03 -7.191792e+03  9.429692e+03
      vertex  5.106750e+03 -7.273563e+03  9.535950e+03
      vertex  4.953322e+03 -7.240655e+03  9.539040e+03
    endloop
  endfacet
  facet normal -2.613603e-01 -6.500713e-01 -7.135111e-01
    outer loop
      vertex  5.031383e+03 -5.605178e+03  7.250000e+03
      vertex  5.090455e+03 -5.783209e+03  7.390564e+03
      vertex  4.944281e+03 -5.747374e+03  7.411458e+03
    endloop
  endfacet
  facet normal -2.639105e-01 -6.744459e-01 -6.895462e-01
    outer loop
      vertex  4.944281e+03 -5.747374e+03  7.411458e+03
      vertex  5.090455e+03 -5.783209e+03  7.390564e+03
      vertex  5.092159e+03 -5.973789e+03  7.576318e+03
    endloop
  endfacet
  facet normal -2.647360e-01 -6.746262e-01 -6.890533e-01
    outer loop
      vertex  4.944281e+03 -5.747374e+03  7.411458e+03
      vertex  5.092159e+03 -5.973789e+03  7.576318e+03
      vertex  4.945228e+03 -5.937378e+03  7.597121e+03
    endloop
  endfacet
  facet normal -2.674354e-01 -7.022191e-01 -6.598232e-01
    outer loop
      vertex  4.945228e+03 -5.937378e+03  7.597121e+03
      vertex  5.092159e+03 -5.973789e+03  7.576318e+03
      vertex  5.093863e+03 -6.156896e+03  7.770500e+03
    endloop
  endfacet
  facet normal -2.667353e-01 -7.020831e-01 -6.602512e-01
    outer loop
      vertex  4.945228e+03 -5.937378e+03  7.597121e+03
      vertex  5.093863e+03 -6.156896e+03  7.770500e+03
      vertex  4.946173e+03 -6.119967e+03  7.790897e+03
    endloop
  endfacet
  facet normal  0.000000e+00  1.000000e+00  0.000000e+00
    outer loop
      vertex  4.800000e+03 -3.930000e+03  7.250000e+03
      vertex  4.800000e+03 -3.930000e+03  9.650000e+03
      vertex  6.000000e+03 -3.930000e+03  7.250000e+03
    endloop
  endfacet
  facet normal  0.000000e+00  1.000000e+00  -0.000000e+00
    outer loop
      vertex  6.000000e+03 -3.930000e+03  7.250000e+03
      vertex  4.800000e+03 -3.930000e+03  9.650000e+03
      vertex  6.000000e+03 -3.930000e+03  9.650000e+03
    endloop
  endfacet
  facet normal -1.000000e+00  0.000000e+00  0.000000e+00
    outer loop
      vertex  4.800000e+03 -3.930000e+03  7.250000e+03
      vertex  4.800000e+03 -5.505588e+03  7.250000e+03
      vertex  4.800000e+03 -5.552927e+03  7.291518e+03
    endloop
  endfacet
  facet normal -1.000000e+00  0.000000e+00  0.000000e+00
    outer loop
      vertex  4.800000e+03 -3.930000e+03  7.250000e+03
      vertex  4.800000e+03 -5.552927e+03  7.291518e+03
      vertex  4.800000e+03 -5.738763e+03  7.462235e+03
    endloop
  endfacet
  facet normal -1.000000e+00  0.000000e+00  0.000000e+00
    outer loop
      vertex  4.800000e+03 -3.930000e+03  7.250000e+03
      vertex  4.800000e+03 -5.738763e+03  7.462235e+03
      vertex  4.800000e+03 -5.918113e+03  7.639855e+03
    endloop
  endfacet
  facet normal -1.000000e+00  0.000000e+00  0.000000e+00
    outer loop
      vertex  4.800000e+03 -3.930000e+03  7.250000e+03
      vertex  4.800000e+03 -5.918113e+03  7.639855e+03
      vertex  4.800000e+03 -6.090688e+03  7.824369e+03
    endloop
  endfacet
  facet normal -1.000000e+00  0.000000e+00  0.000000e+00
    outer loop
      vertex  4.800000e+03 -3.930000e+03  7.250000e+03
      vertex  4.800000e+03 -6.090688e+03  7.824369e+03
      vertex  4.800000e+03 -6.256231e+03  8.015735e+03
    endloop
  endfacet
  facet normal -9.999999e-01  0.000000e+00  0.000000e+00
    outer loop
      vertex  4.800000e+03 -3.930000e+03  7.250000e+03
      vertex  4.800000e+03 -6.256231e+03  8.015735e+03
      vertex  4.800000e+03 -6.344185e+03  8.123864e+03
    endloop
  endfacet
  facet normal -1.000000e+00  0.000000e+00  0.000000e+00
    outer loop
      vertex  4.800000e+03 -3.930000e+03  7.250000e+03
      vertex  4.800000e+03 -6.344185e+03  8.123864e+03
      vertex  4.800000e+03 -6.429910e+03  8.234027e+03
    endloop
  endfacet
  facet normal -1.000000e+00  0.000000e+00  0.000000e+00
    outer loop
      vertex  4.800000e+03 -3.930000e+03  7.250000e+03
      vertex  4.800000e+03 -6.429910e+03  8.234027e+03
      vertex  4.800000e+03 -6.513379e+03  8.346206e+03
    endloop
  endfacet
  facet normal -1.000000e+00  0.000000e+00  0.000000e+00
    outer loop
      vertex  4.800000e+03 -3.930000e+03  7.250000e+03
      vertex  4.800000e+03 -6.513379e+03  8.346206e+03
      vertex  4.800000e+03 -6.594566e+03  8.460380e+03
    endloop
  endfacet
  facet normal -1.000000e+00  0.000000e+00  0.000000e+00
    outer loop
      vertex  4.800000e+03 -3.930000e+03  7.250000e+03
      vertex  4.800000e+03 -6.594566e+03  8.460380e+03
      vertex  4.800000e+03 -6.673451e+03  8.576523e+03
    endloop
  endfacet
  facet normal -1.000000e+00  0.000000e+00  0.000000e+00
    outer loop
      vertex  4.800000e+03 -3.930000e+03  7.250000e+03
      vertex  4.800000e+03 -6.673451e+03  8.576523e+03
      vertex  4.800000e+03 -6.750018e+03  8.694612e+03
    endloop
  endfacet
  facet normal -1.000000e+00  0.000000e+00  0.000000e+00
    outer loop
      vertex  4.800000e+03 -3.930000e+03  7.250000e+03
      vertex  4.800000e+03 -6.750018e+03  8.694612e+03
      vertex  4.800000e+03 -6.820054e+03  8.807674e+03
    endloop
  endfacet
  facet normal -1.000000e+00  0.000000e+00  0.000000e+00
    outer loop
      vertex  4.800000e+03 -3.930000e+03  7.250000e+03
      vertex  4.800000e+03 -6.820054e+03  8.807674e+03
      vertex  4.800000e+03 -6.888012e+03  8.922414e+03
    endloop
  endfacet
  facet normal -1.000000e+00  0.000000e+00  0.000000e+00
    outer loop
      vertex  4.800000e+03 -3.930000e+03  7.250000e+03
      vertex  4.800000e+03 -6.888012e+03  8.922414e+03
      vertex  4.800000e+03 -6.953891e+03  9.038804e+03
    endloop
  endfacet
  facet normal -1.000000e+00  0.000000e+00  0.000000e+00
    outer loop
      vertex  4.800000e+03 -3.930000e+03  7.250000e+03
      vertex  4.800000e+03 -6.953891e+03  9.038804e+03
      vertex  4.800000e+03 -7.017689e+03  9.156815e+03
    endloop
  endfacet
  facet normal -1.000000e+00  0.000000e+00  0.000000e+00
    outer loop
      vertex  4.800000e+03 -3.930000e+03  7.250000e+03
      vertex  4.800000e+03 -7.017689e+03  9.156815e+03
      vertex  4.800000e+03 -7.079414e+03  9.276421e+03
    endloop
  endfacet
  facet normal -9.999999e-01  0.000000e+00  0.000000e+00
    outer loop
      vertex  4.800000e+03 -3.930000e+03  7.250000e+03
      vertex  4.800000e+03 -7.079414e+03  9.276421e+03
      vertex  4.800000e+03 -7.139070e+03  9.397590e+03
    endloop
  endfacet
  facet normal -1.000000e+00  0.000000e+00  0.000000e+00
    outer loop
      vertex  4.800000e+03 -3.930000e+03  7.250000e+03
      vertex  4.800000e+03 -7.139070e+03  9.397590e+03
      vertex  4.800000e+03 -7.197918e+03  9.523012e+03
    endloop
  endfacet
  facet normal -9.999999e-01  0.000000e+00  0.000000e+00
    outer loop
      vertex  4.800000e+03 -3.930000e+03  7.250000e+03
      vertex  4.800000e+03 -7.197918e+03  9.523012e+03
      vertex  4.800000e+03 -7.254644e+03  9.650000e+03
    endloop
  endfacet
  facet normal -1.000000e+00  0.000000e+00  0.000000e+00
    outer loop
      vertex  4.800000e+03 -3.930000e+03  7.250000e+03
      vertex  4.800000e+03 -7.254644e+03  9.650000e+03
      vertex  4.800000e+03 -3.930000e+03  9.650000e+03
    endloop
  endfacet
  facet normal  0.000000e+00  0.000000e+00  1.000000e+00
    outer loop
      vertex  6.000000e+03 -7.491477e+03  9.650000e+03
      vertex  6.000000e+03 -3.930000e+03  9.650000e+03
      vertex  4.800000e+03 -3.930000e+03  9.650000e+03
    endloop
  endfacet
  facet normal  0.000000e+00  0.000000e+00  1.000000e+00
    outer loop
      vertex  6.000000e+03 -7.491477e+03  9.650000e+03
      vertex  4.800000e+03 -3.930000e+03  9.650000e+03
      vertex  4.800000e+03 -7.254644e+03  9.650000e+03
    endloop
  endfacet
  facet normal  0.000000e+00  0.000000e+00  1.000000e+00
    outer loop
      vertex  6.000000e+03 -7.491477e+03  9.650000e+03
      vertex  4.800000e+03 -7.254644e+03  9.650000e+03
      vertex  4.829596e+03 -7.261133e+03  9.650000e+03
    endloop
  endfacet
  facet normal  0.000000e+00  0.000000e+00  9.999999e-01
    outer loop
      vertex  6.000000e+03 -7.491477e+03  9.650000e+03
      vertex  4.829596e+03 -7.261133e+03  9.650000e+03
      vertex  4.989806e+03 -7.295715e+03  9.650000e+03
    endloop
  endfacet
  facet normal  0.000000e+00  0.000000e+00  1.000000e+00
    outer loop
      vertex  6.000000e+03 -7.491477e+03  9.650000e+03
      vertex  4.989806e+03 -7.295715e+03  9.650000e+03
      vertex  5.053556e+03 -7.309203e+03  9.650000e+03
    endloop
  endfacet
  facet normal  0.000000e+00  0.000000e+00  1.000000e+00
    outer loop
      vertex  6.000000e+03 -7.491477e+03  9.650000e+03
      vertex  5.053556e+03 -7.309203e+03  9.650000e+03
      vertex  5.117320e+03 -7.322538e+03  9.650000e+03
    endloop
  endfacet
  facet normal  0.000000e+00  0.000000e+00  9.999999e-01
    outer loop
      vertex  6.000000e+03 -7.491477e+03  9.650000e+03
      vertex  5.117320e+03 -7.322538e+03  9.650000e+03
      vertex  5.181100e+03 -7.335721e+03  9.650000e+03
    endloop
  endfacet
  facet normal  0.000000e+00  0.000000e+00  1.000000e+00
    outer loop
      vertex  6.000000e+03 -7.491477e+03  9.650000e+03
      vertex  5.181100e+03 -7.335721e+03  9.650000e+03
      vertex  5.272069e+03 -7.354250e+03  9.650000e+03
    endloop
  endfacet
  facet normal  0.000000e+00  0.000000e+00  1.000000e+00
    outer loop
      vertex  6.000000e+03 -7.491477e+03  9.650000e+03
      vertex  5.272069e+03 -7.354250e+03  9.650000e+03
      vertex  5.677047e+03 -7.433021e+03  9.650000e+03
    endloop
  endfacet
  facet normal  0.000000e+00  0.000000e+00 -1.000000e+00
    outer loop
      vertex  5.141552e+03 -7.327573e+03  9.650000e+03
      vertex  5.117320e+03 -7.322538e+03  9.650000e+03
      vertex  5.181100e+03 -7.335721e+03  9.650000e+03
    endloop
  endfacet
  facet normal  -0.000000e+00  -0.000000e+00 -1.000000e+00
    outer loop
      vertex  5.102031e+03 -7.319368e+03  9.650000e+03
      vertex  5.117320e+03 -7.322538e+03  9.650000e+03
      vertex  5.141552e+03 -7.327573e+03  9.650000e+03
    endloop
  endfacet
  facet normal  0.000000e+00  0.000000e+00 -1.000000e+00
    outer loop
      vertex  5.102031e+03 -7.319368e+03  9.650000e+03
      vertex  5.053556e+03 -7.309203e+03  9.650000e+03
      vertex  5.117320e+03 -7.322538e+03  9.650000e+03
    endloop
  endfacet
  facet normal  0.000000e+00  0.000000e+00 -9.999999e-01
    outer loop
      vertex  5.102031e+03 -7.319368e+03  9.650000e+03
      vertex  5.056637e+03 -7.309863e+03  9.650000e+03
      vertex  5.053556e+03 -7.309203e+03  9.650000e+03
    endloop
  endfacet
  facet normal  0.000000e+00  0.000000e+00 -1.000000e+00
    outer loop
      vertex  5.053556e+03 -7.309203e+03  9.650000e+03
      vertex  5.056637e+03 -7.309863e+03  9.650000e+03
      vertex  5.011241e+03 -7.300272e+03  9.650000e+03
    endloop
  endfacet
  facet normal  0.000000e+00  0.000000e+00 -9.999999e-01
    outer loop
      vertex  5.011241e+03 -7.300272e+03  9.650000e+03
      vertex  4.989806e+03 -7.295715e+03  9.650000e+03
      vertex  5.053556e+03 -7.309203e+03  9.650000e+03
    endloop
  endfacet
  facet normal  0.000000e+00  0.000000e+00  9.999999e-01
    outer loop
      vertex  5.053556e+03 -7.309203e+03  9.650000e+03
      vertex  4.989806e+03 -7.295715e+03  9.650000e+03
      vertex  5.011241e+03 -7.300272e+03  9.650000e+03
    endloop
  endfacet
  facet normal  0.000000e+00  0.000000e+00  1.000000e+00
    outer loop
      vertex  5.011241e+03 -7.300272e+03  9.650000e+03
      vertex  5.056637e+03 -7.309863e+03  9.650000e+03
      vertex  5.053556e+03 -7.309203e+03  9.650000e+03
    endloop
  endfacet
  facet normal  0.000000e+00  0.000000e+00  1.000000e+00
    outer loop
      vertex  5.117320e+03 -7.322538e+03  9.650000e+03
      vertex  5.053556e+03 -7.309203e+03  9.650000e+03
      vertex  5.056637e+03 -7.309863e+03  9.650000e+03
    endloop
  endfacet
  facet normal  0.000000e+00  0.000000e+00  1.000000e+00
    outer loop
      vertex  5.117320e+03 -7.322538e+03  9.650000e+03
      vertex  5.056637e+03 -7.309863e+03  9.650000e+03
      vertex  5.102031e+03 -7.319368e+03  9.650000e+03
    endloop
  endfacet
  facet normal  0.000000e+00  0.000000e+00  1.000000e+00
    outer loop
      vertex  5.117320e+03 -7.322538e+03  9.650000e+03
      vertex  5.102031e+03 -7.319368e+03  9.650000e+03
      vertex  5.141552e+03 -7.327573e+03  9.650000e+03
    endloop
  endfacet
  facet normal  0.000000e+00  0.000000e+00  1.000000e+00
    outer loop
      vertex  5.181100e+03 -7.335721e+03  9.650000e+03
      vertex  5.117320e+03 -7.322538e+03  9.650000e+03
      vertex  5.141552e+03 -7.327573e+03  9.650000e+03
    endloop
  endfacet
endsolid CATIA STL
